<svg xmlns="http://www.w3.org/2000/svg" xmlns:xlink="http://www.w3.org/1999/xlink" viewBox="0 0 901 451"><defs><style>.cls-1,.cls-10,.cls-100,.cls-101,.cls-11,.cls-12,.cls-13,.cls-14,.cls-15,.cls-16,.cls-17,.cls-18,.cls-19,.cls-2,.cls-20,.cls-21,.cls-22,.cls-23,.cls-24,.cls-25,.cls-26,.cls-27,.cls-28,.cls-29,.cls-3,.cls-30,.cls-31,.cls-32,.cls-33,.cls-34,.cls-35,.cls-36,.cls-37,.cls-38,.cls-39,.cls-4,.cls-40,.cls-41,.cls-42,.cls-43,.cls-44,.cls-45,.cls-46,.cls-47,.cls-48,.cls-49,.cls-5,.cls-50,.cls-52,.cls-53,.cls-54,.cls-55,.cls-56,.cls-57,.cls-58,.cls-59,.cls-6,.cls-60,.cls-61,.cls-62,.cls-63,.cls-64,.cls-65,.cls-66,.cls-67,.cls-68,.cls-69,.cls-7,.cls-70,.cls-71,.cls-72,.cls-73,.cls-74,.cls-75,.cls-76,.cls-77,.cls-78,.cls-79,.cls-8,.cls-80,.cls-81,.cls-82,.cls-83,.cls-84,.cls-85,.cls-86,.cls-87,.cls-88,.cls-89,.cls-9,.cls-90,.cls-91,.cls-92,.cls-93,.cls-94,.cls-95,.cls-96,.cls-97,.cls-98,.cls-99{fill:none;}.cls-1,.cls-10,.cls-100,.cls-101,.cls-11,.cls-12,.cls-13,.cls-14,.cls-15,.cls-16,.cls-17,.cls-18,.cls-19,.cls-2,.cls-20,.cls-21,.cls-22,.cls-23,.cls-24,.cls-25,.cls-26,.cls-27,.cls-28,.cls-29,.cls-3,.cls-30,.cls-31,.cls-32,.cls-33,.cls-34,.cls-35,.cls-36,.cls-37,.cls-38,.cls-39,.cls-4,.cls-40,.cls-41,.cls-42,.cls-43,.cls-44,.cls-45,.cls-46,.cls-47,.cls-48,.cls-49,.cls-5,.cls-50,.cls-51,.cls-52,.cls-53,.cls-54,.cls-55,.cls-56,.cls-57,.cls-58,.cls-59,.cls-6,.cls-60,.cls-61,.cls-62,.cls-63,.cls-64,.cls-65,.cls-66,.cls-67,.cls-68,.cls-69,.cls-7,.cls-70,.cls-71,.cls-72,.cls-73,.cls-74,.cls-75,.cls-76,.cls-77,.cls-78,.cls-79,.cls-8,.cls-80,.cls-81,.cls-82,.cls-83,.cls-84,.cls-85,.cls-86,.cls-87,.cls-88,.cls-89,.cls-9,.cls-90,.cls-91,.cls-92,.cls-93,.cls-94,.cls-95,.cls-96,.cls-97,.cls-98,.cls-99{stroke-miterlimit:10;}.cls-1,.cls-10,.cls-11,.cls-12,.cls-13,.cls-14,.cls-15,.cls-16,.cls-17,.cls-18,.cls-19,.cls-2,.cls-20,.cls-21,.cls-22,.cls-23,.cls-24,.cls-25,.cls-26,.cls-27,.cls-28,.cls-29,.cls-3,.cls-30,.cls-31,.cls-32,.cls-33,.cls-34,.cls-35,.cls-36,.cls-37,.cls-38,.cls-39,.cls-4,.cls-40,.cls-41,.cls-42,.cls-43,.cls-44,.cls-45,.cls-46,.cls-47,.cls-48,.cls-49,.cls-5,.cls-50,.cls-6,.cls-7,.cls-8,.cls-9{stroke-width:0.5px;}.cls-1{stroke:url(#New_Gradient_Swatch_4);}.cls-2{stroke:url(#New_Gradient_Swatch_4-2);}.cls-3{stroke:url(#New_Gradient_Swatch_4-3);}.cls-4{stroke:url(#New_Gradient_Swatch_4-4);}.cls-5{stroke:url(#New_Gradient_Swatch_4-5);}.cls-6{stroke:url(#New_Gradient_Swatch_4-6);}.cls-7{stroke:url(#New_Gradient_Swatch_4-7);}.cls-8{stroke:url(#New_Gradient_Swatch_4-8);}.cls-9{stroke:url(#New_Gradient_Swatch_4-9);}.cls-10{stroke:url(#New_Gradient_Swatch_4-10);}.cls-11{stroke:url(#New_Gradient_Swatch_4-11);}.cls-12{stroke:url(#New_Gradient_Swatch_4-12);}.cls-13{stroke:url(#New_Gradient_Swatch_4-13);}.cls-14{stroke:url(#New_Gradient_Swatch_4-14);}.cls-15{stroke:url(#New_Gradient_Swatch_4-15);}.cls-16{stroke:url(#New_Gradient_Swatch_4-16);}.cls-17{stroke:url(#New_Gradient_Swatch_4-17);}.cls-18{stroke:url(#New_Gradient_Swatch_4-18);}.cls-19{stroke:url(#New_Gradient_Swatch_4-19);}.cls-20{stroke:url(#New_Gradient_Swatch_4-20);}.cls-21{stroke:url(#New_Gradient_Swatch_4-21);}.cls-22{stroke:url(#New_Gradient_Swatch_4-22);}.cls-23{stroke:url(#New_Gradient_Swatch_4-23);}.cls-24{stroke:url(#New_Gradient_Swatch_4-24);}.cls-25{stroke:url(#New_Gradient_Swatch_4-25);}.cls-26{stroke:url(#New_Gradient_Swatch_4-26);}.cls-27{stroke:url(#New_Gradient_Swatch_4-27);}.cls-28{stroke:url(#New_Gradient_Swatch_4-28);}.cls-29{stroke:url(#New_Gradient_Swatch_4-29);}.cls-30{stroke:url(#New_Gradient_Swatch_4-30);}.cls-31{stroke:url(#New_Gradient_Swatch_4-31);}.cls-32{stroke:url(#New_Gradient_Swatch_4-32);}.cls-33{stroke:url(#New_Gradient_Swatch_4-33);}.cls-34{stroke:url(#New_Gradient_Swatch_4-34);}.cls-35{stroke:url(#New_Gradient_Swatch_4-35);}.cls-36{stroke:url(#New_Gradient_Swatch_4-36);}.cls-37{stroke:url(#New_Gradient_Swatch_4-37);}.cls-38{stroke:url(#New_Gradient_Swatch_4-38);}.cls-39{stroke:url(#New_Gradient_Swatch_4-39);}.cls-40{stroke:url(#New_Gradient_Swatch_4-40);}.cls-41{stroke:url(#New_Gradient_Swatch_4-41);}.cls-42{stroke:url(#New_Gradient_Swatch_4-42);}.cls-43{stroke:url(#New_Gradient_Swatch_4-43);}.cls-44{stroke:url(#New_Gradient_Swatch_4-44);}.cls-45{stroke:url(#New_Gradient_Swatch_4-45);}.cls-46{stroke:url(#New_Gradient_Swatch_4-46);}.cls-47{stroke:url(#New_Gradient_Swatch_4-47);}.cls-48{stroke:url(#New_Gradient_Swatch_4-48);}.cls-49{stroke:url(#New_Gradient_Swatch_4-49);}.cls-50{stroke:url(#New_Gradient_Swatch_4-50);}.cls-51{stroke:#4d4d4d;fill:url(#New_Gradient_Swatch_3);}.cls-100,.cls-101,.cls-52,.cls-53,.cls-54,.cls-55,.cls-56,.cls-57,.cls-58,.cls-59,.cls-60,.cls-61,.cls-62,.cls-63,.cls-64,.cls-65,.cls-66,.cls-67,.cls-68,.cls-69,.cls-70,.cls-71,.cls-72,.cls-73,.cls-74,.cls-75,.cls-76,.cls-77,.cls-78,.cls-79,.cls-80,.cls-81,.cls-82,.cls-83,.cls-84,.cls-85,.cls-86,.cls-87,.cls-88,.cls-89,.cls-90,.cls-91,.cls-92,.cls-93,.cls-94,.cls-95,.cls-96,.cls-97,.cls-98,.cls-99{stroke-width:0.75px;}.cls-52{stroke:url(#New_Gradient_Swatch_4-51);}.cls-53{stroke:url(#New_Gradient_Swatch_4-52);}.cls-54{stroke:url(#New_Gradient_Swatch_4-53);}.cls-55{stroke:url(#New_Gradient_Swatch_4-54);}.cls-56{stroke:url(#New_Gradient_Swatch_4-55);}.cls-57{stroke:url(#New_Gradient_Swatch_4-56);}.cls-58{stroke:url(#New_Gradient_Swatch_4-57);}.cls-59{stroke:url(#New_Gradient_Swatch_4-58);}.cls-60{stroke:url(#New_Gradient_Swatch_4-59);}.cls-61{stroke:url(#New_Gradient_Swatch_4-60);}.cls-62{stroke:url(#New_Gradient_Swatch_4-61);}.cls-63{stroke:url(#New_Gradient_Swatch_4-62);}.cls-64{stroke:url(#New_Gradient_Swatch_4-63);}.cls-65{stroke:url(#New_Gradient_Swatch_4-64);}.cls-66{stroke:url(#New_Gradient_Swatch_4-65);}.cls-67{stroke:url(#New_Gradient_Swatch_4-66);}.cls-68{stroke:url(#New_Gradient_Swatch_4-67);}.cls-69{stroke:url(#New_Gradient_Swatch_4-68);}.cls-70{stroke:url(#New_Gradient_Swatch_4-69);}.cls-71{stroke:url(#New_Gradient_Swatch_4-70);}.cls-72{stroke:url(#New_Gradient_Swatch_4-71);}.cls-73{stroke:url(#New_Gradient_Swatch_4-72);}.cls-74{stroke:url(#New_Gradient_Swatch_4-73);}.cls-75{stroke:url(#New_Gradient_Swatch_4-74);}.cls-76{stroke:url(#New_Gradient_Swatch_4-75);}.cls-77{stroke:url(#New_Gradient_Swatch_4-76);}.cls-78{stroke:url(#New_Gradient_Swatch_4-77);}.cls-79{stroke:url(#New_Gradient_Swatch_4-78);}.cls-80{stroke:url(#New_Gradient_Swatch_4-79);}.cls-81{stroke:url(#New_Gradient_Swatch_4-80);}.cls-82{stroke:url(#New_Gradient_Swatch_4-81);}.cls-83{stroke:url(#New_Gradient_Swatch_4-82);}.cls-84{stroke:url(#New_Gradient_Swatch_4-83);}.cls-85{stroke:url(#New_Gradient_Swatch_4-84);}.cls-86{stroke:url(#New_Gradient_Swatch_4-85);}.cls-87{stroke:url(#New_Gradient_Swatch_4-86);}.cls-88{stroke:url(#New_Gradient_Swatch_4-87);}.cls-89{stroke:url(#New_Gradient_Swatch_4-88);}.cls-90{stroke:url(#New_Gradient_Swatch_4-89);}.cls-91{stroke:url(#New_Gradient_Swatch_4-90);}.cls-92{stroke:url(#New_Gradient_Swatch_4-91);}.cls-93{stroke:url(#New_Gradient_Swatch_4-92);}.cls-94{stroke:url(#New_Gradient_Swatch_4-93);}.cls-95{stroke:url(#New_Gradient_Swatch_4-94);}.cls-96{stroke:url(#New_Gradient_Swatch_4-95);}.cls-97{stroke:url(#New_Gradient_Swatch_4-96);}.cls-98{stroke:url(#New_Gradient_Swatch_4-97);}.cls-99{stroke:url(#New_Gradient_Swatch_4-98);}.cls-100{stroke:url(#New_Gradient_Swatch_4-99);}.cls-101{stroke:url(#New_Gradient_Swatch_4-100);}.cls-102{opacity:0.61;}.cls-103{fill:#fff;opacity:0.07;}.cls-104{fill:url(#linear-gradient);}.cls-105{fill:url(#linear-gradient-11);}.cls-106{fill:url(#linear-gradient-36);}.cls-107{fill:url(#linear-gradient-39);}.cls-108{fill:url(#linear-gradient-45);}.cls-109{fill:url(#linear-gradient-48);}.cls-110{fill:url(#linear-gradient-52);}.cls-111{fill:url(#linear-gradient-59);}.cls-112{fill:#ececec;}</style><linearGradient id="New_Gradient_Swatch_4" x1="450.5" y1="375.75" x2="450.5" y2="375.25" gradientUnits="userSpaceOnUse"><stop offset="0" stop-color="#f16449"/><stop offset="1" stop-color="#971c5a"/></linearGradient><linearGradient id="New_Gradient_Swatch_4-2" x1="450.5" y1="369.82" x2="450.5" y2="365.75" xlink:href="#New_Gradient_Swatch_4"/><linearGradient id="New_Gradient_Swatch_4-3" x1="450.5" y1="364.92" x2="450.5" y2="353.41" xlink:href="#New_Gradient_Swatch_4"/><linearGradient id="New_Gradient_Swatch_4-4" x1="450.5" y1="360.31" x2="450.5" y2="341.77" xlink:href="#New_Gradient_Swatch_4"/><linearGradient id="New_Gradient_Swatch_4-5" x1="450.5" y1="353.5" x2="450.5" y2="334.28" xlink:href="#New_Gradient_Swatch_4"/><linearGradient id="New_Gradient_Swatch_4-6" x1="450.5" y1="349.54" x2="450.5" y2="328.44" xlink:href="#New_Gradient_Swatch_4"/><linearGradient id="New_Gradient_Swatch_4-7" x1="450.5" y1="347.42" x2="450.5" y2="322.49" xlink:href="#New_Gradient_Swatch_4"/><linearGradient id="New_Gradient_Swatch_4-8" x1="450.5" y1="346.15" x2="450.5" y2="316.49" xlink:href="#New_Gradient_Swatch_4"/><linearGradient id="New_Gradient_Swatch_4-9" x1="450.5" y1="344.79" x2="450.5" y2="310.57" xlink:href="#New_Gradient_Swatch_4"/><linearGradient id="New_Gradient_Swatch_4-10" x1="450.51" y1="342.44" x2="450.51" y2="304.94" xlink:href="#New_Gradient_Swatch_4"/><linearGradient id="New_Gradient_Swatch_4-11" x1="450.5" y1="338.16" x2="450.5" y2="299.99" xlink:href="#New_Gradient_Swatch_4"/><linearGradient id="New_Gradient_Swatch_4-12" x1="450.5" y1="331.89" x2="450.5" y2="297.08" xlink:href="#New_Gradient_Swatch_4"/><linearGradient id="New_Gradient_Swatch_4-13" x1="450.5" y1="324.56" x2="450.5" y2="295.95" xlink:href="#New_Gradient_Swatch_4"/><linearGradient id="New_Gradient_Swatch_4-14" x1="450.5" y1="320.01" x2="450.5" y2="295.74" xlink:href="#New_Gradient_Swatch_4"/><linearGradient id="New_Gradient_Swatch_4-15" x1="450.49" y1="321.77" x2="450.49" y2="295.66" xlink:href="#New_Gradient_Swatch_4"/><linearGradient id="New_Gradient_Swatch_4-16" x1="450.49" y1="323" x2="450.49" y2="295.08" xlink:href="#New_Gradient_Swatch_4"/><linearGradient id="New_Gradient_Swatch_4-17" x1="450.49" y1="322.58" x2="450.49" y2="293.07" xlink:href="#New_Gradient_Swatch_4"/><linearGradient id="New_Gradient_Swatch_4-18" x1="450.49" y1="319.31" x2="450.49" y2="289.65" xlink:href="#New_Gradient_Swatch_4"/><linearGradient id="New_Gradient_Swatch_4-19" x1="450.49" y1="314.18" x2="450.49" y2="284.64" xlink:href="#New_Gradient_Swatch_4"/><linearGradient id="New_Gradient_Swatch_4-20" x1="450.48" y1="308.34" x2="450.48" y2="278.3" xlink:href="#New_Gradient_Swatch_4"/><linearGradient id="New_Gradient_Swatch_4-21" x1="450.48" y1="302.07" x2="450.48" y2="271.22" xlink:href="#New_Gradient_Swatch_4"/><linearGradient id="New_Gradient_Swatch_4-22" x1="450.48" y1="295.64" x2="450.48" y2="263.69" xlink:href="#New_Gradient_Swatch_4"/><linearGradient id="New_Gradient_Swatch_4-23" x1="450.47" y1="290.37" x2="450.47" y2="256.04" xlink:href="#New_Gradient_Swatch_4"/><linearGradient id="New_Gradient_Swatch_4-24" x1="450.47" y1="287.96" x2="450.47" y2="248.61" xlink:href="#New_Gradient_Swatch_4"/><linearGradient id="New_Gradient_Swatch_4-25" x1="450.47" y1="287.82" x2="450.47" y2="242.09" xlink:href="#New_Gradient_Swatch_4"/><linearGradient id="New_Gradient_Swatch_4-26" x1="450.47" y1="287.28" x2="450.47" y2="236.12" xlink:href="#New_Gradient_Swatch_4"/><linearGradient id="New_Gradient_Swatch_4-27" x1="450.46" y1="285.83" x2="450.46" y2="231.37" xlink:href="#New_Gradient_Swatch_4"/><linearGradient id="New_Gradient_Swatch_4-28" x1="450.46" y1="283.14" x2="450.46" y2="228.25" xlink:href="#New_Gradient_Swatch_4"/><linearGradient id="New_Gradient_Swatch_4-29" x1="450.46" y1="279.85" x2="450.46" y2="225.96" xlink:href="#New_Gradient_Swatch_4"/><linearGradient id="New_Gradient_Swatch_4-30" x1="450.46" y1="276.23" x2="450.46" y2="224.03" xlink:href="#New_Gradient_Swatch_4"/><linearGradient id="New_Gradient_Swatch_4-31" x1="450.46" y1="272.33" x2="450.46" y2="222.45" xlink:href="#New_Gradient_Swatch_4"/><linearGradient id="New_Gradient_Swatch_4-32" x1="450.47" y1="268.22" x2="450.47" y2="221.18" xlink:href="#New_Gradient_Swatch_4"/><linearGradient id="New_Gradient_Swatch_4-33" x1="450.47" y1="263.93" x2="450.47" y2="220.2" xlink:href="#New_Gradient_Swatch_4"/><linearGradient id="New_Gradient_Swatch_4-34" x1="450.48" y1="259.54" x2="450.48" y2="219.47" xlink:href="#New_Gradient_Swatch_4"/><linearGradient id="New_Gradient_Swatch_4-35" x1="450.49" y1="255.14" x2="450.49" y2="218.97" xlink:href="#New_Gradient_Swatch_4"/><linearGradient id="New_Gradient_Swatch_4-36" x1="450.49" y1="250.88" x2="450.49" y2="218.67" xlink:href="#New_Gradient_Swatch_4"/><linearGradient id="New_Gradient_Swatch_4-37" x1="450.5" y1="248.41" x2="450.5" y2="218.52" xlink:href="#New_Gradient_Swatch_4"/><linearGradient id="New_Gradient_Swatch_4-38" x1="450.5" y1="245.26" x2="450.5" y2="216.66" xlink:href="#New_Gradient_Swatch_4"/><linearGradient id="New_Gradient_Swatch_4-39" x1="450.51" y1="243.48" x2="450.51" y2="212.72" xlink:href="#New_Gradient_Swatch_4"/><linearGradient id="New_Gradient_Swatch_4-40" x1="450.52" y1="241.8" x2="450.52" y2="208.92" xlink:href="#New_Gradient_Swatch_4"/><linearGradient id="New_Gradient_Swatch_4-41" x1="450.52" y1="240.17" x2="450.52" y2="205.3" xlink:href="#New_Gradient_Swatch_4"/><linearGradient id="New_Gradient_Swatch_4-42" x1="450.53" y1="238.56" x2="450.53" y2="201.88" xlink:href="#New_Gradient_Swatch_4"/><linearGradient id="New_Gradient_Swatch_4-43" x1="450.53" y1="237.04" x2="450.53" y2="198.72" xlink:href="#New_Gradient_Swatch_4"/><linearGradient id="New_Gradient_Swatch_4-44" x1="450.54" y1="235.37" x2="450.54" y2="195.84" xlink:href="#New_Gradient_Swatch_4"/><linearGradient id="New_Gradient_Swatch_4-45" x1="450.54" y1="233.61" x2="450.54" y2="193.29" xlink:href="#New_Gradient_Swatch_4"/><linearGradient id="New_Gradient_Swatch_4-46" x1="450.55" y1="231.75" x2="450.55" y2="191.1" xlink:href="#New_Gradient_Swatch_4"/><linearGradient id="New_Gradient_Swatch_4-47" x1="450.56" y1="229.77" x2="450.56" y2="189.32" xlink:href="#New_Gradient_Swatch_4"/><linearGradient id="New_Gradient_Swatch_4-48" x1="450.56" y1="227.62" x2="450.56" y2="187.97" xlink:href="#New_Gradient_Swatch_4"/><linearGradient id="New_Gradient_Swatch_4-49" x1="450.57" y1="227.7" x2="450.57" y2="187.1" xlink:href="#New_Gradient_Swatch_4"/><linearGradient id="New_Gradient_Swatch_4-50" x1="450.58" y1="228" x2="450.58" y2="186.76" xlink:href="#New_Gradient_Swatch_4"/><radialGradient id="New_Gradient_Swatch_3" cx="425.39" cy="217.29" r="363.66" gradientTransform="translate(-187.58 -100.44) scale(1.5 1.5)" gradientUnits="userSpaceOnUse"><stop offset="0" stop-color="#6a407f"/><stop offset="1" stop-color="#291159"/></radialGradient><linearGradient id="New_Gradient_Swatch_4-51" x1="450.5" y1="450.63" x2="450.5" y2="449.88" xlink:href="#New_Gradient_Swatch_4"/><linearGradient id="New_Gradient_Swatch_4-52" x1="450.5" y1="442.76" x2="450.5" y2="437.28" xlink:href="#New_Gradient_Swatch_4"/><linearGradient id="New_Gradient_Swatch_4-53" x1="450.5" y1="436.26" x2="450.5" y2="420.91" xlink:href="#New_Gradient_Swatch_4"/><linearGradient id="New_Gradient_Swatch_4-54" x1="450.5" y1="430.14" x2="450.5" y2="405.47" xlink:href="#New_Gradient_Swatch_4"/><linearGradient id="New_Gradient_Swatch_4-55" x1="450.5" y1="421.12" x2="450.5" y2="395.54" xlink:href="#New_Gradient_Swatch_4"/><linearGradient id="New_Gradient_Swatch_4-56" x1="450.5" y1="415.87" x2="450.5" y2="387.8" xlink:href="#New_Gradient_Swatch_4"/><linearGradient id="New_Gradient_Swatch_4-57" x1="450.5" y1="413.05" x2="450.5" y2="379.9" xlink:href="#New_Gradient_Swatch_4"/><linearGradient id="New_Gradient_Swatch_4-58" x1="450.5" y1="411.36" x2="450.5" y2="371.94" xlink:href="#New_Gradient_Swatch_4"/><linearGradient id="New_Gradient_Swatch_4-59" x1="450.51" y1="409.56" x2="450.51" y2="364.1" xlink:href="#New_Gradient_Swatch_4"/><linearGradient id="New_Gradient_Swatch_4-60" x1="450.51" y1="406.45" x2="450.51" y2="356.63" xlink:href="#New_Gradient_Swatch_4"/><linearGradient id="New_Gradient_Swatch_4-61" x1="450.51" y1="400.77" x2="450.51" y2="350.05" xlink:href="#New_Gradient_Swatch_4"/><linearGradient id="New_Gradient_Swatch_4-62" x1="450.51" y1="392.46" x2="450.51" y2="346.2" xlink:href="#New_Gradient_Swatch_4"/><linearGradient id="New_Gradient_Swatch_4-63" x1="450.5" y1="382.73" x2="450.5" y2="344.7" xlink:href="#New_Gradient_Swatch_4"/><linearGradient id="New_Gradient_Swatch_4-64" x1="450.5" y1="376.7" x2="450.5" y2="344.42" xlink:href="#New_Gradient_Swatch_4"/><linearGradient id="New_Gradient_Swatch_4-65" x1="450.49" y1="379.04" x2="450.49" y2="344.32" xlink:href="#New_Gradient_Swatch_4"/><linearGradient id="New_Gradient_Swatch_4-66" x1="450.49" y1="380.67" x2="450.49" y2="343.54" xlink:href="#New_Gradient_Swatch_4"/><linearGradient id="New_Gradient_Swatch_4-67" x1="450.49" y1="380.1" x2="450.49" y2="340.89" xlink:href="#New_Gradient_Swatch_4"/><linearGradient id="New_Gradient_Swatch_4-68" x1="450.49" y1="375.77" x2="450.49" y2="336.34" xlink:href="#New_Gradient_Swatch_4"/><linearGradient id="New_Gradient_Swatch_4-69" x1="450.48" y1="368.97" x2="450.48" y2="329.7" xlink:href="#New_Gradient_Swatch_4"/><linearGradient id="New_Gradient_Swatch_4-70" x1="450.48" y1="361.23" x2="450.48" y2="321.3" xlink:href="#New_Gradient_Swatch_4"/><linearGradient id="New_Gradient_Swatch_4-71" x1="450.47" y1="352.9" x2="450.47" y2="311.9" xlink:href="#New_Gradient_Swatch_4"/><linearGradient id="New_Gradient_Swatch_4-72" x1="450.47" y1="344.37" x2="450.47" y2="301.92" xlink:href="#New_Gradient_Swatch_4"/><linearGradient id="New_Gradient_Swatch_4-73" x1="450.47" y1="337.39" x2="450.47" y2="291.77" xlink:href="#New_Gradient_Swatch_4"/><linearGradient id="New_Gradient_Swatch_4-74" x1="450.46" y1="334.19" x2="450.46" y2="281.91" xlink:href="#New_Gradient_Swatch_4"/><linearGradient id="New_Gradient_Swatch_4-75" x1="450.46" y1="334" x2="450.46" y2="273.26" xlink:href="#New_Gradient_Swatch_4"/><linearGradient id="New_Gradient_Swatch_4-76" x1="450.46" y1="333.29" x2="450.46" y2="265.36" xlink:href="#New_Gradient_Swatch_4"/><linearGradient id="New_Gradient_Swatch_4-77" x1="450.45" y1="331.36" x2="450.45" y2="259.06" xlink:href="#New_Gradient_Swatch_4"/><linearGradient id="New_Gradient_Swatch_4-78" x1="450.45" y1="327.8" x2="450.45" y2="254.91" xlink:href="#New_Gradient_Swatch_4"/><linearGradient id="New_Gradient_Swatch_4-79" x1="450.44" y1="323.43" x2="450.44" y2="251.87" xlink:href="#New_Gradient_Swatch_4"/><linearGradient id="New_Gradient_Swatch_4-80" x1="450.44" y1="318.63" x2="450.44" y2="249.32" xlink:href="#New_Gradient_Swatch_4"/><linearGradient id="New_Gradient_Swatch_4-81" x1="450.45" y1="313.47" x2="450.45" y2="247.22" xlink:href="#New_Gradient_Swatch_4"/><linearGradient id="New_Gradient_Swatch_4-82" x1="450.46" y1="308.01" x2="450.46" y2="245.54" xlink:href="#New_Gradient_Swatch_4"/><linearGradient id="New_Gradient_Swatch_4-83" x1="450.47" y1="302.33" x2="450.47" y2="244.24" xlink:href="#New_Gradient_Swatch_4"/><linearGradient id="New_Gradient_Swatch_4-84" x1="450.47" y1="296.51" x2="450.47" y2="243.27" xlink:href="#New_Gradient_Swatch_4"/><linearGradient id="New_Gradient_Swatch_4-85" x1="450.48" y1="290.66" x2="450.48" y2="242.61" xlink:href="#New_Gradient_Swatch_4"/><linearGradient id="New_Gradient_Swatch_4-86" x1="450.49" y1="285.01" x2="450.49" y2="242.2" xlink:href="#New_Gradient_Swatch_4"/><linearGradient id="New_Gradient_Swatch_4-87" x1="450.5" y1="281.74" x2="450.5" y2="242.01" xlink:href="#New_Gradient_Swatch_4"/><linearGradient id="New_Gradient_Swatch_4-88" x1="450.51" y1="277.56" x2="450.51" y2="239.53" xlink:href="#New_Gradient_Swatch_4"/><linearGradient id="New_Gradient_Swatch_4-89" x1="450.51" y1="275.19" x2="450.51" y2="234.32" xlink:href="#New_Gradient_Swatch_4"/><linearGradient id="New_Gradient_Swatch_4-90" x1="450.52" y1="272.97" x2="450.52" y2="229.28" xlink:href="#New_Gradient_Swatch_4"/><linearGradient id="New_Gradient_Swatch_4-91" x1="450.53" y1="270.81" x2="450.53" y2="224.47" xlink:href="#New_Gradient_Swatch_4"/><linearGradient id="New_Gradient_Swatch_4-92" x1="450.54" y1="268.68" x2="450.54" y2="219.94" xlink:href="#New_Gradient_Swatch_4"/><linearGradient id="New_Gradient_Swatch_4-93" x1="450.55" y1="266.66" x2="450.55" y2="215.74" xlink:href="#New_Gradient_Swatch_4"/><linearGradient id="New_Gradient_Swatch_4-94" x1="450.55" y1="264.44" x2="450.55" y2="211.93" xlink:href="#New_Gradient_Swatch_4"/><linearGradient id="New_Gradient_Swatch_4-95" x1="450.56" y1="262.11" x2="450.56" y2="208.54" xlink:href="#New_Gradient_Swatch_4"/><linearGradient id="New_Gradient_Swatch_4-96" x1="450.57" y1="259.65" x2="450.57" y2="205.64" xlink:href="#New_Gradient_Swatch_4"/><linearGradient id="New_Gradient_Swatch_4-97" x1="450.58" y1="257.01" x2="450.58" y2="203.27" xlink:href="#New_Gradient_Swatch_4"/><linearGradient id="New_Gradient_Swatch_4-98" x1="450.59" y1="254.16" x2="450.59" y2="201.49" xlink:href="#New_Gradient_Swatch_4"/><linearGradient id="New_Gradient_Swatch_4-99" x1="450.6" y1="254.26" x2="450.6" y2="200.34" xlink:href="#New_Gradient_Swatch_4"/><linearGradient id="New_Gradient_Swatch_4-100" x1="450.61" y1="254.67" x2="450.61" y2="199.88" xlink:href="#New_Gradient_Swatch_4"/><linearGradient id="linear-gradient" x1="303.24" y1="-46.9" x2="577.96" y2="111.7" gradientUnits="userSpaceOnUse"><stop offset="0.38" stop-color="#f16449"/><stop offset="0.6" stop-color="#ef6249"/><stop offset="0.71" stop-color="#e75c4b"/><stop offset="0.8" stop-color="#d9514d"/><stop offset="0.88" stop-color="#c64251"/><stop offset="0.95" stop-color="#ae2e56"/><stop offset="1" stop-color="#971c5a"/></linearGradient><linearGradient id="linear-gradient-11" x1="336.61" y1="8.48" x2="548.99" y2="131.1" gradientUnits="userSpaceOnUse"><stop offset="0.78" stop-color="#f16449"/><stop offset="0.86" stop-color="#ee6349"/><stop offset="0.9" stop-color="#e6614b"/><stop offset="0.94" stop-color="#d85e4d"/><stop offset="0.98" stop-color="#c45a51"/><stop offset="1" stop-color="#b05554"/></linearGradient><linearGradient id="linear-gradient-36" x1="167.09" y1="165.41" x2="201.76" y2="185.42" gradientUnits="userSpaceOnUse"><stop offset="0.25" stop-color="#f16449"/><stop offset="0.52" stop-color="#ef6249"/><stop offset="0.65" stop-color="#e75c4b"/><stop offset="0.76" stop-color="#d9514d"/><stop offset="0.86" stop-color="#c64251"/><stop offset="0.94" stop-color="#ae2e56"/><stop offset="1" stop-color="#971c5a"/></linearGradient><linearGradient id="linear-gradient-39" x1="89.96" y1="114.61" x2="172.81" y2="162.45" xlink:href="#linear-gradient-36"/><linearGradient id="linear-gradient-45" x1="62.73" y1="165.89" x2="94.47" y2="184.22" xlink:href="#linear-gradient-36"/><linearGradient id="linear-gradient-48" x1="334.65" y1="125.19" x2="384.23" y2="153.82" xlink:href="#linear-gradient-36"/><linearGradient id="linear-gradient-52" x1="526.68" y1="111.56" x2="625.62" y2="168.69" xlink:href="#linear-gradient-36"/><linearGradient id="linear-gradient-59" x1="761.54" y1="117" x2="842.17" y2="163.55" xlink:href="#linear-gradient-36"/></defs><g id="design_copy" data-name="design copy"><path class="cls-1" d="M150.5,375.5h600"/><path class="cls-2" d="M150.5,369.56c95.31,0,190.6-3.91,285.85-3.53,104.73.42,209.38,3.54,314.15,3.54"/><path class="cls-3" d="M150.5,363.74c51.42,0,103.83,2.9,155.1-1.53,35.14-3,69.26-9.12,104.72-8.51,59.2,1,118.17,7.75,177.33,9.65,54.2,1.74,108.63.41,162.85.41"/><path class="cls-4" d="M150.5,358c49.06,0,102.54,6,151-2.54,29.45-5.18,54.42-14.34,85.16-13.39,66.73,2.05,133,12,199.68,15.24,54.52,2.68,109.56.73,164.14.73"/><path class="cls-5" d="M150.5,352.42h91c19.62,0,40.07,1.67,59.38-2.65,28-6.26,48.76-15.94,78.86-15.21,69.22,1.69,137.82,14,206.94,17.38,54.44,2.67,109.35.37,163.84.54"/><path class="cls-6" d="M150.5,346.93c48.85,0,103.14,6.62,151.29-2.66,30.6-5.9,55.68-16.34,87.83-15.53,67.29,1.68,133.7,16,200.88,19.59,53.22,2.84,106.74-1.55,160-1.3"/><path class="cls-7" d="M150.5,341.55C201,341.55,255,347,304.89,338.8c35.2-5.78,66.88-17.24,103.23-16,64,2.24,126.58,19,190.36,23.44,50.64,3.5,101.37-4.31,152-4.58"/><path class="cls-8" d="M150.5,336.28c52.17,0,106.64,4.46,158.4-2.87,40.73-5.76,79.74-18.54,121.39-16.44,60.06,3,118.13,22.47,177.93,28,47.63,4.37,94.75-7.46,142.28-8.46"/><path class="cls-9" d="M150.5,331.12c53.56,0,108.87,4,162.09-3,45.93-6,91.87-19.93,138.57-16.9,56.46,3.65,110.1,25.82,166.17,32.25,45.09,5.17,88.36-10.52,133.17-12.13"/><path class="cls-10" d="M150.5,326.08c54.39,0,110.13,3.54,164.21-3,49.72-6,100.67-21,151.07-17.29,54,4,104.17,28.47,157.66,35.36,43.8,5.65,83.79-12.95,127.06-14.75"/><path class="cls-11" d="M150.5,321.15c54.58-.29,110.15,3.65,164.44-2.85,50.82-6.08,103.11-21.27,154.6-17.46,53.25,4,102.4,29.13,155.16,36,43.8,5.72,82.65-13.71,125.8-15.34"/><path class="cls-12" d="M150.5,316.34c55.93-.5,112.12,6.67,167.85-.46,49.34-6.31,99.44-21.67,149.56-18,53.49,3.94,103.89,26.09,157,32.72,43.33,5.41,82.78-12.11,125.6-13.84"/><path class="cls-13" d="M150.5,311.64c58,.39,115.68,12.42,173.63,4.05,46.78-6.76,93-21.93,140.75-19.15,54.17,3.15,106.29,21.47,160.19,26.94,42.87,4.36,82.92-9.93,125.43-11.34"/><path class="cls-14" d="M150.5,307.06c60.49,1.87,120.16,19.61,180.7,9.71,43.68-7.14,85-22.26,129.89-20.67,55.14,1.95,109.14,16,164.13,19.84,42.41,2.95,83.09-7.46,125.28-8.32"/><path class="cls-15" d="M150.5,302.59c62.56,3.44,125.27,27.66,188,15.59,40.38-7.78,76.81-22.8,118.67-22.26,56.26.74,112,10.4,168.2,12.49,42,1.57,83.23-4.91,125.13-5.18"/><path class="cls-16" d="M150.5,298.24c64,4.6,130.23,35.06,194.45,20.7,37.58-8.41,69.38-23.41,108.8-23.6,57.31-.28,114.49,5.36,171.78,6,41.72.48,83.27-2.57,125-2.41"/><path class="cls-17" d="M150.5,294c64.94,4.95,133.83,40.31,199,24.09,35.77-8.9,63.94-24,102-24.43,99.58-1,199.44.52,299,1.12"/><path class="cls-18" d="M150.5,289.89c65.27,5.39,134.73,41.49,200.31,24.79,35.27-9,62.29-24.23,100-24.23,99.89,0,199.8.71,299.69.29"/><path class="cls-19" d="M150.5,285.9c64.37,7.92,133.63,39,198.71,24,35.06-8.12,63.83-22.17,100.83-22,58.37.22,116.7-3.16,175.07-2.93,41.8.16,83.6,2.36,125.39,1.92"/><path class="cls-20" d="M150.5,282c63.44,10,131.1,35,195.68,22.75,35.08-6.68,66-18.24,102.32-18.36,58.48-.18,116.69-7.22,175.15-7.83,42.44-.44,84.48,4.72,126.85,4.43"/><path class="cls-21" d="M150.5,278.26c62.38,11.77,127.76,30,191.61,21.25,35.31-4.84,68.36-13,104.29-13.61,58.68-1,116.65-12.25,175.27-14.27,43.46-1.49,85.55,7.51,128.83,7.69"/><path class="cls-22" d="M150.5,274.61C211.63,288,274.66,299.12,337.41,294.2c35.69-2.8,70.72-6.89,106.54-8.21,59-2.17,116.57-17.86,175.41-21.65,44.75-2.88,86.74,10.55,131.14,11.41"/><path class="cls-23" d="M150.5,271.09c93.79,23.25,194.73,20.86,290.88,15.29C500.73,283,557.83,262.7,616.92,257c46.13-4.46,88,13.65,133.58,15.29"/><path class="cls-24" d="M150.5,267.69c58.21,16.21,117.41,14.06,177.17,16.15,36.69,1.28,74.57,5.79,111.21,2.94,59.8-4.64,116.31-29.34,175.68-36.9,47.45-6,89.26,16.68,135.94,19.07"/><path class="cls-25" d="M150.5,264.41c56.13,17.49,113.07,9.87,170.68,14.41,38.07,3,77.37,11.32,115.6,8,59.1-5.19,114.1-33.38,172.45-42.9,50.25-8.2,92.12,18.8,141.27,21.85"/><path class="cls-26" d="M150.5,261.25c55.08,19.08,110.74,6.69,167.34,13,38.66,4.33,78.11,15.76,117.24,12,59.56-5.75,114-37.52,172.56-48.15,51.29-9.3,92.85,21.14,142.86,24.49"/><path class="cls-27" d="M150.5,258.21c54.48,20.86,109.15,4.69,165.34,12.06,39.25,5.15,78.26,18.49,118.27,14.61,60-5.81,113.72-40.43,172.61-51.45,52.09-9.75,93.15,23,143.78,26.2"/><path class="cls-28" d="M150.5,255.25c54.48,21.43,108.77,4.3,165,11.88,39.45,5.31,78.06,19,118.36,15.06,60.08-5.88,113.7-41,172.72-51.94,52.29-9.72,93,24.06,143.9,26.48"/><path class="cls-29" d="M150.5,252.07c54.58,20.49,108.86,5,165,12.46,39.19,5.2,77.85,18.5,117.84,14.24,59.94-6.4,114.06-39.8,173.07-50.82,52.15-9.75,93.13,24.56,144.08,25.77"/><path class="cls-30" d="M150.5,248.64c54.58,19.7,108.79,6.32,164.85,13.41,38.88,4.92,77.41,17.44,117,13C492.21,268.29,546.9,236.81,606,226c52.06-9.56,93.44,24.88,144.52,24.62"/><path class="cls-31" d="M150.5,245C205,264.07,259.08,253.13,315,259.67c38.53,4.5,76.76,15.9,115.87,11.37,59.86-7,115.19-36.31,174.39-46.77,52-9.19,94,25,145.2,23.06"/><path class="cls-32" d="M150.5,241.19c54.37,18.58,108.21,10.37,164.1,16.18,38.13,4,75.93,14,114.51,9.45,59.9-7,115.91-34.08,175.31-44,52-8.65,94.77,25.06,146.08,21.14"/><path class="cls-33" d="M150.5,237.25c54.21,18.19,107.7,13,163.55,17.91,37.67,3.33,74.94,11.68,112.93,7.26,60-7,116.73-31.58,176.38-40.72,51.9-8,95.83,25,147.14,18.91"/><path class="cls-34" d="M150.5,233.21c54,17.91,107.05,15.9,162.89,19.82,37.16,2.6,73.83,9.11,111.19,4.87,60.13-6.83,117.63-28.86,177.56-37.12,51.82-7.15,97.18,24.77,148.36,16.42"/><path class="cls-35" d="M150.5,229.12c53.84,17.69,106.27,19.06,162.15,21.83,36.59,1.82,72.63,6.34,109.29,2.33,60.33-6.61,118.61-25.95,178.86-33.21,51.7-6.23,98.79,24.45,149.7,13.71"/><path class="cls-36" d="M150.5,225c53.65,17.52,105.39,22.41,161.33,23.93,36,1,71.37,3.43,107.3-.33,60.56-6.32,119.63-22.88,180.23-29.05,51.55-5.26,100.65,24,151.14,10.83"/><path class="cls-37" d="M150.5,220.92c86.08,28,176,31.86,265.68,23,60.83-6,120.71-19.72,181.66-24.73C649.25,215,700.55,242.7,750.5,227"/><path class="cls-38" d="M150.5,216.89c55.62,18,106.89,29.23,165.3,28,32.56-.67,64.78-2.63,97.22-5.56,60.18-5.44,119.84-16,180.14-20.15,52.05-3.58,107.5,22.95,157.34,4.54"/><path class="cls-39" d="M150.5,213c55.47,17.81,105.67,32.8,164.21,29.91,31.89-1.58,63.45-5.44,95.23-8.05,60.54-5,120.92-12.83,181.62-15.71,27.76-1.32,53.18,1,80.51,5.66s52.2,6.94,78.43-4.2"/><path class="cls-40" d="M150.5,209.16c55.31,17.57,104.48,36.29,163.12,31.68,31.2-2.45,62.07-8.13,93.25-10.44,60.92-4.52,122-9.66,183.09-11.28,27.82-.74,53.84,1.33,81.34,5.38,27.87,4.12,53.11,5.55,79.2-7"/><path class="cls-41" d="M150.5,205.54c55.13,17.22,103.33,39.59,162,33.3,30.56-3.28,60.69-10.64,91.34-12.68,61.33-4.08,123.07-6.55,184.53-6.93a614.86,614.86,0,0,1,82.16,5.12c28.41,3.57,54,4.18,80-9.76"/><path class="cls-42" d="M150.5,202.12c55,16.77,102.26,42.63,160.94,34.73,30-4,59.31-12.91,89.51-14.71,61.74-3.69,124.1-3.53,185.93-2.73,28,.37,55.11,1.93,83,4.87,28.94,3.06,54.92,2.86,80.67-12.44"/><path class="cls-43" d="M150.5,199c54.08,15.92,100.42,45.09,158.21,36.17,30.08-4.64,59.11-14.92,89.62-16.74,63.18-3.78,127.35-.61,190.56,1.38C640.4,221.39,705,239.06,750.5,209.29"/><path class="cls-44" d="M150.5,196.08c54,15.17,99.53,47.19,157.26,37.11,29.63-5.17,57.75-16.57,88-18.25,63.6-3.53,128.29,2.21,191.82,5.17,51.75,2.41,118.1,18.67,162.91-13.15"/><path class="cls-45" d="M150.5,193.53c54,14.22,98.68,48.69,156.37,37.71,29.26-5.57,56.51-17.81,86.6-19.39,64-3.37,129.13,4.82,193,8.62,52,3.09,120,18.19,164.07-15.6"/><path class="cls-46" d="M150.5,191.35c54.08,13,97.86,49.48,155.55,37.92,29-5.8,55.45-18.59,85.41-20.12,64.37-3.29,129.86,7.17,194,11.67,52.3,3.66,121.69,17.89,165.06-17.76"/><path class="cls-47" d="M150.5,189.56c54.29,11.62,97.08,49.46,154.84,37.73,28.75-5.84,54.61-18.88,84.45-20.41,64.72-3.32,130.47,9.25,194.84,14.27,52.57,4.09,123.2,17.81,165.87-19.61"/><path class="cls-48" d="M150.5,188.22c54.58,9.87,96.37,48.49,154.23,37.05,28.6-5.65,54.08-18.58,83.79-20.17,65-3.49,130.92,11,195.53,16.33,52.8,4.37,124.47,18,166.45-21.08"/><path class="cls-49" d="M150.5,187.35c54.24,7.6,95,46,152.21,36.14,29-5,55-18.12,84.83-19.72C454,200.21,521,216.74,587,221.92,639.14,226,709.92,239.57,750.5,199.5"/><path class="cls-50" d="M150.5,187c31,2.89,56.26,18.24,84.88,28.76,21.73,8,44.25,9,67,5.61,28.89-4.29,55.2-16.44,84.81-18.3,66.64-4.18,133.58,14,199.75,19C639.22,226,710.5,240.61,750.5,199"/><rect class="cls-51" x="0.5" y="0.5" width="900" height="450"/></g><g id="design_trans" data-name="design trans"><path class="cls-52" d="M.5,450.25h900"/><path class="cls-53" d="M.5,442.38c143,0,285.9-5.2,428.78-4.69,157.08.56,314.07,4.7,471.22,4.7"/><path class="cls-54" d="M.5,434.65c77.13,0,155.74,3.85,232.64-2,52.72-4,103.9-12.09,157.1-11.28,88.8,1.36,177.24,10.28,266,12.8,81.29,2.31,162.94.54,244.27.54"/><path class="cls-55" d="M.5,427.07c73.59,0,153.81,7.92,226.53-3.37,44.18-6.87,81.64-19,127.74-17.76,100.1,2.72,199.51,15.87,299.51,20.21,81.79,3.55,164.35,1,246.22,1"/><path class="cls-56" d="M.5,419.64H137c29.42,0,60.1,2.22,89.06-3.5,42-8.32,73.13-21.15,118.29-20.18,103.83,2.24,206.73,18.55,310.42,23,81.65,3.54,164,.49,245.75.71"/><path class="cls-57" d="M.5,412.36c73.28,0,154.72,8.78,226.93-3.53,45.91-7.82,83.52-21.67,131.74-20.6,100.95,2.23,200.56,21.22,301.32,26,79.84,3.77,160.12-2.06,240-1.73"/><path class="cls-58" d="M.5,405.22c75.68,0,156.69,7.22,231.58-3.64,52.8-7.67,100.33-22.86,154.86-21.18,95.93,3,189.86,25.22,285.52,31.08,76,4.65,152.07-5.71,228-6.07"/><path class="cls-59" d="M.5,398.23c78.25,0,160,5.92,237.6-3.8,61.1-7.65,119.61-24.6,182.09-21.81,90.08,4,177.19,29.81,266.88,37.09,71.45,5.8,142.13-9.89,213.43-11.22"/><path class="cls-60" d="M.5,391.4c80.35,0,163.31,5.24,243.14-3.95C312.53,379.53,381.44,361,451.5,365c84.67,4.85,165.13,34.25,249.25,42.78,67.63,6.85,132.54-13.95,199.75-16.09"/><path class="cls-61" d="M.5,384.71c81.58,0,165.19,4.69,246.31-4,74.58-8,151-27.82,226.62-22.92,80.93,5.25,156.25,37.76,236.48,46.9,65.7,7.49,125.69-17.18,190.59-19.56"/><path class="cls-62" d="M.5,378.17c81.87-.39,165.22,4.84,246.66-3.78,76.22-8.06,154.66-28.22,231.9-23.16,79.88,5.24,153.59,38.63,232.73,47.77,65.71,7.59,124-18.18,188.71-20.35"/><path class="cls-63" d="M.5,371.79c83.9-.66,168.18,8.85,251.78-.61,74-8.37,149.16-28.74,224.33-23.86,80.25,5.22,155.84,34.6,235.49,43.39,65,7.18,124.17-16.06,188.4-18.36"/><path class="cls-64" d="M.5,365.56C87.56,366.07,174,382,261,370.93c70.17-9,139.51-29.09,211.12-25.41,81.25,4.19,159.44,28.48,240.28,35.74,64.31,5.78,124.39-13.18,188.15-15.05"/><path class="cls-65" d="M.5,359.48c90.73,2.48,180.24,26,271.05,12.88,65.52-9.47,127.55-29.52,194.84-27.41,82.71,2.58,163.71,21.22,246.19,26.3,63.62,3.92,124.63-9.89,187.92-11"/><path class="cls-66" d="M.5,353.56c93.85,4.55,187.91,36.68,282,20.66,60.58-10.31,115.21-30.24,178-29.51,84.38,1,168,13.79,252.29,16.56,63,2.08,124.85-6.52,187.7-6.87"/><path class="cls-67" d="M.5,347.79c96,6.09,195.35,46.49,291.67,27.44,56.37-11.14,104.08-31.05,163.21-31.3,86-.37,171.72,7.11,257.66,8,62.59.64,124.92-3.41,187.46-3.2"/><path class="cls-68" d="M.5,342.17c97.42,6.56,200.75,53.47,298.48,32,53.67-11.81,95.91-31.88,153-32.4,149.38-1.38,299.16.68,448.57,1.47"/><path class="cls-69" d="M.5,336.71c97.9,7.14,202.1,55,300.46,32.88,52.9-11.92,93.44-32.14,150-32.14,149.84,0,299.71.94,449.54.39"/><path class="cls-70" d="M.5,331.41C97.06,341.92,201,383.19,298.56,363.2c52.59-10.78,95.74-29.4,151.25-29.22,87.56.28,175-4.19,262.6-3.89,62.7.22,125.4,3.13,188.09,2.55"/><path class="cls-71" d="M.5,326.27C95.66,339.53,197.15,372.75,294,356.44c52.63-8.85,99-24.19,153.48-24.34,87.72-.25,175-9.58,262.73-10.39,63.66-.59,126.71,6.26,190.27,5.87"/><path class="cls-72" d="M.5,321.28c93.58,15.62,191.65,39.81,287.42,28.19,53-6.42,102.54-17.21,156.43-18.05,88-1.38,175-16.25,262.9-18.93,65.19-2,128.33,10,193.25,10.2"/><path class="cls-73" d="M.5,316.45c91.69,17.7,186.23,32.5,280.37,26,53.52-3.71,106.07-9.13,159.81-10.88,88.46-2.89,174.86-23.69,263.11-28.71C770.91,299,833.9,316.81,900.5,318"/><path class="cls-74" d="M.5,311.78c140.69,30.83,292.1,27.66,436.32,20.28,89-4.56,174.68-31.41,263.31-39,69.2-5.91,132,18.11,200.37,20.29"/><path class="cls-75" d="M.5,307.26c87.31,21.5,176.12,18.65,265.75,21.42,55,1.7,111.86,7.68,166.82,3.91,89.7-6.17,174.46-38.93,263.52-48.95,71.17-8,133.89,22.12,203.91,25.3"/><path class="cls-76" d="M.5,302.91c84.19,23.21,169.61,13.1,256,19.12,57.11,4,116.05,15,173.4,10.56,88.65-6.89,171.16-44.28,258.68-56.91,75.37-10.87,138.17,24.94,211.9,29"/><path class="cls-77" d="M.5,298.72c82.62,25.3,166.1,8.88,251,17.3,58,5.75,117.18,20.91,175.88,15.9,89.32-7.62,170.91-49.76,258.82-63.86,76.95-12.33,139.29,28,214.3,32.48"/><path class="cls-78" d="M.5,294.69c81.73,27.66,163.72,6.22,248,16,58.87,6.82,117.39,24.52,177.41,19.37,89.94-7.7,170.57-53.62,258.91-68.24C763,248.9,824.56,292.32,900.5,296.58"/><path class="cls-79" d="M.5,290.76c81.73,28.43,163.16,5.71,247.53,15.76,59.17,7.05,117.08,25.21,177.55,20,90.11-7.81,170.53-54.35,259.07-68.9,78.44-12.88,139.56,31.91,215.85,35.13"/><path class="cls-80" d="M.5,286.54c81.87,27.18,163.28,6.67,247.52,16.54C306.8,310,364.8,327.61,424.77,322c89.92-8.49,171.09-52.78,259.6-67.41,78.24-12.92,139.71,32.58,216.13,34.19"/><path class="cls-81" d="M.5,282c81.87,26.14,163.19,8.39,247.28,17.79,58.31,6.52,116.11,23.14,175.48,17.23,89.81-8.95,171.85-50.7,260.45-65.09,78.1-12.68,140.17,33,216.79,32.65"/><path class="cls-82" d="M.5,277.17c81.75,25.3,162.87,10.78,246.81,19.45,57.79,6,115.14,21.1,173.8,15.08,89.8-9.21,172.78-48.15,261.59-62,78-12.19,141,33.21,217.8,30.58"/><path class="cls-83" d="M.5,272.12c81.55,24.64,162.32,13.75,246.15,21.46,57.19,5.26,113.89,18.52,171.76,12.53,89.85-9.3,173.87-45.2,263-58.31,77.93-11.46,142.16,33.25,219.12,28"/><path class="cls-84" d="M.5,266.89C81.81,291,162.05,284.1,245.82,290.65c56.51,4.42,112.41,15.48,169.4,9.63,90-9.24,175.1-41.89,264.57-54,77.84-10.56,143.75,33.12,220.71,25.08"/><path class="cls-85" d="M.5,261.54c81,23.75,160.57,21.08,244.34,26.28,55.74,3.45,110.74,12.08,166.78,6.45C501.82,285.22,588.07,256,678,245c77.72-9.47,145.77,32.86,222.54,21.79"/><path class="cls-86" d="M.5,256.11c80.76,23.46,159.41,25.28,243.22,29,54.89,2.4,109,8.4,164,3.08,90.48-8.76,177.9-34.41,268.28-44,77.54-8.26,148.19,32.44,224.55,18.2"/><path class="cls-87" d="M.5,250.66c80.47,23.24,158.09,29.72,242,31.73,53.93,1.3,107,4.55,160.94-.43,90.84-8.38,179.45-30.35,270.34-38.54,77.34-7,151,31.87,226.72,14.37"/><path class="cls-88" d="M.5,245.24c129.12,37.1,264,42.25,398.52,30.54,91.25-7.95,181.06-26.15,272.49-32.8,77.11-5.61,154.06,31.15,229,10.36"/><path class="cls-89" d="M.5,239.89c83.43,23.86,160.33,38.76,248,37.18,48.84-.89,97.17-3.49,145.83-7.38C484.55,262.48,574,248.48,664.49,243c78.08-4.75,161.25,30.44,236,6"/><path class="cls-90" d="M.5,234.68c83.21,23.62,158.5,43.5,246.32,39.66,47.83-2.09,95.16-7.21,142.84-10.68,90.81-6.59,181.38-17,272.42-20.83,41.65-1.75,79.77,1.32,120.77,7.51s78.31,9.2,117.65-5.57"/><path class="cls-91" d="M.5,229.64c83,23.29,156.71,48.13,244.67,42,46.82-3.25,93.12-10.77,139.89-13.84,91.38-6,183-12.82,274.62-15,41.75-1,80.78,1.75,122,7.14,41.81,5.46,79.66,7.35,118.8-9.29"/><path class="cls-92" d="M.5,224.83c82.7,22.85,155,52.52,243,44.16,45.84-4.34,91-14.1,137-16.81,92-5.41,184.6-8.68,276.79-9.19a1045.13,1045.13,0,0,1,123.24,6.79c42.61,4.74,81,5.54,119.93-12.95"/><path class="cls-93" d="M.5,220.3c82.44,22.24,153.39,56.54,241.41,46.06,44.94-5.35,89-17.12,134.27-19.51,92.61-4.89,186.15-4.67,278.88-3.61,42,.48,82.68,2.55,124.43,6.46,43.42,4.05,82.38,3.79,121-16.51"/><path class="cls-94" d="M.5,216.11c81.12,21.12,150.63,59.8,237.32,48,45.12-6.15,88.66-19.78,134.42-22.2,94.78-5,191-.81,285.84,1.83,77.27,2.14,174.09,25.58,242.42-13.9"/><path class="cls-95" d="M.5,212.29c81,20.11,149.29,62.59,235.89,49.22,44.44-6.87,86.63-22,132-24.2,95.4-4.69,192.43,2.93,287.73,6.85,77.62,3.19,177.14,24.77,244.36-17.44"/><path class="cls-96" d="M.5,208.91c81,18.85,148,64.57,234.55,50,43.89-7.39,84.78-23.62,129.9-25.72,96-4.46,193.7,6.39,289.45,11.43,78,4.11,180,24.13,246.1-20.68"/><path class="cls-97" d="M.5,206c81.12,17.3,146.79,65.62,233.33,50.3,43.46-7.69,83.17-24.66,128.11-26.69,96.56-4.37,194.79,9.52,291,15.48,78.45,4.86,182.54,23.73,247.59-23.55"/><path class="cls-98" d="M.5,203.64c81.43,15.41,145.62,65.59,232.26,50,43.13-7.75,81.92-25,126.68-27.07,97.07-4.41,195.7,12.27,292.26,18.92,78.85,5.44,184.8,23.63,248.8-26"/><path class="cls-99" d="M.5,201.86C82.37,215,145.05,266.18,231.85,251c42.9-7.5,81.12-24.65,125.67-26.76,97.53-4.62,196.39,14.57,293.3,21.66C730,251.7,837.53,269.78,900.5,218"/><path class="cls-100" d="M.5,200.71c81.35,10.08,142.44,61,228.32,47.94,43.42-6.61,82.44-24,127.24-26.16,99.73-4.73,200.14,17.19,299.21,24.07C733.45,252,839.63,270,900.5,216.82"/><path class="cls-101" d="M.5,200.25c46.5,3.83,84.39,24.18,127.32,38.14,32.6,10.59,66.37,11.92,100.49,7.44,43.33-5.7,82.79-21.8,127.22-24.26,100-5.55,200.35,18.58,299.62,25.15,78.43,5.2,185.35,24.63,245.35-30.53"/></g><g id="glassmorph" class="cls-102"><rect class="cls-103" x="36.88" y="122.75" width="190.5" height="163.5" rx="5"/><rect class="cls-103" x="501.13" y="122.75" width="151.5" height="163.5" rx="5"/><rect class="cls-103" x="312.13" y="122.75" width="88.5" height="163.5" rx="5"/><rect class="cls-103" x="736.63" y="122.75" width="129" height="163.5" rx="5"/></g><g id="Text"><path d="M266.66,21.06v-4.6h28.2v4.6Zm4.6,7.88h20.51v4.6H271.26v14.8h-4.6v-25h4.6Z"/><path d="M327.88,16.44V36.73a9.58,9.58,0,0,1-2.52,6.52,17.65,17.65,0,0,1-2.08,1.88,16,16,0,0,1-19.24,0A15.58,15.58,0,0,1,302,43.22a9.55,9.55,0,0,1-2.51-6.51V16.44H304V34.05a9.66,9.66,0,0,0,9.27,9.69H314a9.65,9.65,0,0,0,9.28-9.69V16.44Z"/><path d="M332.46,21.06v-4.6h28.45v4.6Zm11.68,27.28v-25h4.6v25Z"/><path d="M393.92,16.44V36.73a9.58,9.58,0,0,1-2.52,6.52,16.2,16.2,0,0,1-2.08,1.88,16,16,0,0,1-19.23,0A15.58,15.58,0,0,1,368,43.22a9.55,9.55,0,0,1-2.51-6.51V16.44h4.6V34.05a9.65,9.65,0,0,0,9.27,9.69h.69a9.64,9.64,0,0,0,9.27-9.69V16.44Z"/><path d="M428.18,48.34H422.8l-9.19-15.07-.26-.41-.05,0-.25.06L413,33l-.36.09c-.27.06-.55.12-.82.16l-.24,0-.12,0-.31,0H411l-.32,0-.4,0h0l-.37,0h-6.76V48.34h-4.6v-32H425c0,.38,0,.75,0,1.13a15.93,15.93,0,0,1-4.75,11.36c-.2.2-.4.39-.61.57l-.22.19,0,0-.28.23-.2.17-.15.11c-.17.14-.35.27-.53.4l-.26.18h0l-.24.16,0,0-.09.06.55.91ZM417,25.58A11.44,11.44,0,0,0,419.86,21H403.11v7.89H409a11.34,11.34,0,0,0,8-3.27Z"/><path d="M458.88,16.46v4.6h-28.2v-4.6Zm-23.6,27.28h23.6v4.6h-28.2v-25h4.6v5.59h20.51v4.6H435.28Z"/><path d="M513.21,16.46v4.6H485v-4.6Zm-23.6,27.28h23.6v4.6H485v-25h4.6v5.59h20.51v4.6H489.61Z"/><path d="M546.55,32.46a15.21,15.21,0,0,1-.17,2.35,16,16,0,0,1-13.87,13.53H517.84v-25h4.6V43.74h9.76A11.43,11.43,0,0,0,542,32.46a11.15,11.15,0,0,0-.23-2.25,11.41,11.41,0,0,0-10.68-9.14H517.84V16.45h12.9A16,16,0,0,1,546.4,30.21,16.67,16.67,0,0,1,546.55,32.46Z"/><path d="M581.23,48.34H567.46A16.45,16.45,0,0,1,556,43.74a15.63,15.63,0,0,1,0-22.62,16.49,16.49,0,0,1,11.47-4.6h13.71v4.6H565.84a11.58,11.58,0,0,0-10.2,11.31,11.57,11.57,0,0,0,10.2,11.31h10.79V33.61h-9.09L565.42,29h15.81Z"/><path d="M614.54,16.46v4.6h-28.2v-4.6Zm-23.6,27.28h23.6v4.6h-28.2v-25h4.6v5.59h20.51v4.6H590.94Z"/><path class="cls-104" d="M266.66,21.06v-4.6h28.2v4.6Zm4.6,7.88h20.51v4.6H271.26v14.8h-4.6v-25h4.6Z"/><path class="cls-104" d="M327.88,16.44V36.73a9.58,9.58,0,0,1-2.52,6.52,17.65,17.65,0,0,1-2.08,1.88,16,16,0,0,1-19.24,0A15.58,15.58,0,0,1,302,43.22a9.55,9.55,0,0,1-2.51-6.51V16.44H304V34.05a9.66,9.66,0,0,0,9.27,9.69H314a9.65,9.65,0,0,0,9.28-9.69V16.44Z"/><path class="cls-104" d="M332.46,21.06v-4.6h28.45v4.6Zm11.68,27.28v-25h4.6v25Z"/><path class="cls-104" d="M393.92,16.44V36.73a9.58,9.58,0,0,1-2.52,6.52,16.2,16.2,0,0,1-2.08,1.88,16,16,0,0,1-19.23,0A15.58,15.58,0,0,1,368,43.22a9.55,9.55,0,0,1-2.51-6.51V16.44h4.6V34.05a9.65,9.65,0,0,0,9.27,9.69h.69a9.64,9.64,0,0,0,9.27-9.69V16.44Z"/><path class="cls-104" d="M428.18,48.34H422.8l-9.19-15.07-.26-.41-.05,0-.25.06L413,33l-.36.09c-.27.06-.55.12-.82.16l-.24,0-.12,0-.31,0H411l-.32,0-.4,0h0l-.37,0h-6.76V48.34h-4.6v-32H425c0,.38,0,.75,0,1.13a15.93,15.93,0,0,1-4.75,11.36c-.2.2-.4.39-.61.57l-.22.19,0,0-.28.23-.2.17-.15.11c-.17.14-.35.27-.53.4l-.26.18h0l-.24.16,0,0-.09.06.55.91ZM417,25.58A11.44,11.44,0,0,0,419.86,21H403.11v7.89H409a11.34,11.34,0,0,0,8-3.27Z"/><path class="cls-104" d="M458.88,16.46v4.6h-28.2v-4.6Zm-23.6,27.28h23.6v4.6h-28.2v-25h4.6v5.59h20.51v4.6H435.28Z"/><path class="cls-104" d="M513.21,16.46v4.6H485v-4.6Zm-23.6,27.28h23.6v4.6H485v-25h4.6v5.59h20.51v4.6H489.61Z"/><path class="cls-104" d="M546.55,32.46a15.21,15.21,0,0,1-.17,2.35,16,16,0,0,1-13.87,13.53H517.84v-25h4.6V43.74h9.76A11.43,11.43,0,0,0,542,32.46a11.15,11.15,0,0,0-.23-2.25,11.41,11.41,0,0,0-10.68-9.14H517.84V16.45h12.9A16,16,0,0,1,546.4,30.21,16.67,16.67,0,0,1,546.55,32.46Z"/><path class="cls-104" d="M581.23,48.34H567.46A16.45,16.45,0,0,1,556,43.74a15.63,15.63,0,0,1,0-22.62,16.49,16.49,0,0,1,11.47-4.6h13.71v4.6H565.84a11.58,11.58,0,0,0-10.2,11.31,11.57,11.57,0,0,0,10.2,11.31h10.79V33.61h-9.09L565.42,29h15.81Z"/><path class="cls-104" d="M614.54,16.46v4.6h-28.2v-4.6Zm-23.6,27.28h23.6v4.6h-28.2v-25h4.6v5.59h20.51v4.6H590.94Z"/><path d="M303.41,66.31l.55,1.06-3.51,6.74h-1.09Zm7.48,7.8h-1.1L305.57,66l-1-1.92.55-1,.69,1.32Z"/><path d="M329.77,63V74.11h-1V65.37l-.72.72-2.47,2.47-.46.46-.13.13-.39.39L321.11,66l-.72-.72-1-1V63l5.21,5.21L328,64.78ZM319.43,66.8l1,1v6.35h-1Z"/><path d="M341.22,63v7.21a3.17,3.17,0,0,1-.84,2.17,4.52,4.52,0,0,1-.73.65,5.56,5.56,0,0,1-6.72,0,5.81,5.81,0,0,1-.74-.66,3.21,3.21,0,0,1-.83-2.17V63h.92v6.2a4.06,4.06,0,0,0,3.87,4h.28a4,4,0,0,0,3.87-4V63Z"/><path d="M343.44,66a2.1,2.1,0,0,0,2.1,2.1h3.73a3,3,0,0,1,2.63,1.52,3.08,3.08,0,0,1,0,3,3,3,0,0,1-2.63,1.52h-6.75v-.92h6.75a2.1,2.1,0,1,0,0-4.2h-3.73a3,3,0,0,1,0-6h6.85v.92h-6.85A2.1,2.1,0,0,0,343.44,66Z"/><path d="M354.09,74.11V62.93H355V74.11Z"/><path d="M366.42,70.77h1a5.6,5.6,0,0,1-10.73-2.26,5.25,5.25,0,0,1,.06-.79,5.6,5.6,0,0,1,10.74-1.28h-1a4.68,4.68,0,0,0-8.88,2.07,5.13,5.13,0,0,0,.1,1,4.68,4.68,0,0,0,8.68,1.3Z"/><path d="M371.67,66.31l.55,1.06-3.51,6.74h-1.1Zm7.47,7.8h-1.09L373.83,66l-1-1.92.55-1,.68,1.32Z"/><path d="M389.36,73.19v.92h-8.5V62.86h.92V73.19Z"/><path d="M398.81,66a2.1,2.1,0,0,0,2.1,2.1h3.73a3,3,0,0,1,0,6h-6.75v-.92h6.75a2.1,2.1,0,1,0,0-4.2h-3.73a3,3,0,1,1,0-6h6.84v.92h-6.84A2.1,2.1,0,0,0,398.81,66Z"/><path d="M419.75,68.5a5.62,5.62,0,1,1-5.61-5.62A5.62,5.62,0,0,1,419.75,68.5Zm-1,0a4.64,4.64,0,1,0-4.63,4.63A4.64,4.64,0,0,0,418.77,68.5Z"/><path d="M431,63v7.21a3.16,3.16,0,0,1-.83,2.17,5.59,5.59,0,0,1-7.46.65,5.72,5.72,0,0,1-.73-.66,3.17,3.17,0,0,1-.84-2.17V63H422v6.2a4.06,4.06,0,0,0,3.87,4h.28a4,4,0,0,0,3.87-4V63Z"/><path d="M441.26,63V73.49l-1-1-6-6-.69-.68-.92-.92V63.5l7.77,7.77V63Zm-8.69,4.21.92.92v6h-.92Z"/><path d="M452.94,68.56a5.59,5.59,0,0,1-4.89,5.55H443v-.92h5a4.7,4.7,0,0,0,3.9-3.67,4.47,4.47,0,0,0,.1-1,4.73,4.73,0,0,0-.09-.93,4.71,4.71,0,0,0-4.38-3.75H443V63h4.43a5.55,5.55,0,0,1,3.64,1.4,5.63,5.63,0,0,1,1.84,3.41A6.84,6.84,0,0,1,452.94,68.56Zm-9.35,3.87-.61.3V65.55h.92v6.73Z"/><path d="M454.66,74.11V62.93h.92V74.11Z"/><path d="M466,63V73.49l-1-1-6.05-6-.68-.68-.92-.92V63.5l7.77,7.77V63Zm-8.69,4.21.92.92v6h-.92Z"/><path d="M477.84,67.66v6.45h-4.76a5.75,5.75,0,0,1-4-1.61,5.47,5.47,0,0,1,0-7.91,5.75,5.75,0,0,1,4-1.61h4.74v.92h-5.4a4.67,4.67,0,0,0,0,9.29h4.5V68.58h-3.55l-.43-.92Z"/><path d="M497.6,68.5A5.62,5.62,0,1,1,492,62.88,5.62,5.62,0,0,1,497.6,68.5Zm-1,0A4.64,4.64,0,1,0,492,73.13,4.64,4.64,0,0,0,496.62,68.5Z"/><path d="M498.91,63.62,502.44,70,501.86,71l-4.11-7.42Zm10.47,0-5.1,9.22-.71,1.27-.05-.1v0l-.53-1,1-1.82,4.23-7.63Z"/><path d="M511.09,63.88V63h9.77v.92Zm.92,9.31h8.85v.92h-9.77V65.54H512v2.1h7.69v.92H512Z"/><path d="M532,74.11h-1.08l-3.33-5.46-.1-.15-.15-.26-.3.08h-.13l-.13,0a2.47,2.47,0,0,1-.29.06h-.12l-.11,0h0l-.11,0h-3.19v5.59H522V67.6h3.54a4.47,4.47,0,0,0,1.85-.38,4.73,4.73,0,0,0,1.43-1A4.64,4.64,0,0,0,530,64.37l.17-.53h-7.23v2.79l-.42.21-.5.25V62.92h9.13v0a5.57,5.57,0,0,1-.14,1.22,5.5,5.5,0,0,1-1.53,2.75l-.21.21-.07.06h0l-.09.08h0l-.07.06,0,0v0l-.19.14a.18.18,0,0,0-.07,0h0l-.08.05h-.05l-.33.21.2.34.21.34Z"/><path d="M543.05,68.56a5.59,5.59,0,0,1-4.89,5.55h-5.08v-.92h5a4.7,4.7,0,0,0,3.9-3.67,4.47,4.47,0,0,0,.1-1,4.73,4.73,0,0,0-.09-.93,4.65,4.65,0,0,0-1.77-2.8,4.6,4.6,0,0,0-2.61-.95h-4.58V63h4.44A5.58,5.58,0,0,1,543,67.77,5.16,5.16,0,0,1,543.05,68.56Zm-9.35,3.87-.62.3V65.55H534v6.73Z"/><path d="M554.45,74.11h-1.08L550,68.65,550,68.5l-.16-.26-.29.08h-.14a.53.53,0,0,1-.12,0l-.29.06h-.13l-.1,0h-.05l-.12,0h-3.19v5.59h-.92V67.6H548a4.63,4.63,0,0,0,3.27-1.34,4.66,4.66,0,0,0,1.17-1.89l.17-.53h-7.24v2.79l-.42.21-.5.25V62.92h9.13v0a5.56,5.56,0,0,1-.13,1.22,5.5,5.5,0,0,1-1.53,2.75l-.22.21-.07.06h0l-.1.08h0l-.07.06,0,0,0,0-.19.14-.07,0h0l-.07.05h0l-.34.21.21.34.21.34Z"/><path d="M556.16,74.11V62.93h.92V74.11Z"/><path d="M560,63.62,563.47,70,562.89,71l-4.1-7.42Zm10.47,0-5.11,9.22-.7,1.27-.06-.1v0l-.53-1,1-1.82,4.22-7.63Z"/><path d="M572.13,63.88V63h9.77v.92Zm.91,9.31h8.86v.92h-9.77V65.54H573v2.1h7.7v.92H573Z"/><path class="cls-105" d="M303.41,66.31l.55,1.06-3.51,6.74h-1.09Zm7.48,7.8h-1.1L305.57,66l-1-1.92.55-1,.69,1.32Z"/><path class="cls-105" d="M329.77,63V74.11h-1V65.37l-.72.72-2.47,2.47-.46.46-.13.13-.39.39L321.11,66l-.72-.72-1-1V63l5.21,5.21L328,64.78ZM319.43,66.8l1,1v6.35h-1Z"/><path class="cls-105" d="M341.22,63v7.21a3.17,3.17,0,0,1-.84,2.17,4.52,4.52,0,0,1-.73.65,5.56,5.56,0,0,1-6.72,0,5.81,5.81,0,0,1-.74-.66,3.21,3.21,0,0,1-.83-2.17V63h.92v6.2a4.06,4.06,0,0,0,3.87,4h.28a4,4,0,0,0,3.87-4V63Z"/><path class="cls-105" d="M343.44,66a2.1,2.1,0,0,0,2.1,2.1h3.73a3,3,0,0,1,2.63,1.52,3.08,3.08,0,0,1,0,3,3,3,0,0,1-2.63,1.52h-6.75v-.92h6.75a2.1,2.1,0,1,0,0-4.2h-3.73a3,3,0,0,1,0-6h6.85v.92h-6.85A2.1,2.1,0,0,0,343.44,66Z"/><path class="cls-105" d="M354.09,74.11V62.93H355V74.11Z"/><path class="cls-105" d="M366.42,70.77h1a5.6,5.6,0,0,1-10.73-2.26,5.25,5.25,0,0,1,.06-.79,5.6,5.6,0,0,1,10.74-1.28h-1a4.68,4.68,0,0,0-8.88,2.07,5.13,5.13,0,0,0,.1,1,4.68,4.68,0,0,0,8.68,1.3Z"/><path class="cls-105" d="M371.67,66.31l.55,1.06-3.51,6.74h-1.1Zm7.47,7.8h-1.09L373.83,66l-1-1.92.55-1,.68,1.32Z"/><path class="cls-105" d="M389.36,73.19v.92h-8.5V62.86h.92V73.19Z"/><path class="cls-105" d="M398.81,66a2.1,2.1,0,0,0,2.1,2.1h3.73a3,3,0,0,1,0,6h-6.75v-.92h6.75a2.1,2.1,0,1,0,0-4.2h-3.73a3,3,0,1,1,0-6h6.84v.92h-6.84A2.1,2.1,0,0,0,398.81,66Z"/><path class="cls-105" d="M419.75,68.5a5.62,5.62,0,1,1-5.61-5.62A5.62,5.62,0,0,1,419.75,68.5Zm-1,0a4.64,4.64,0,1,0-4.63,4.63A4.64,4.64,0,0,0,418.77,68.5Z"/><path class="cls-105" d="M431,63v7.21a3.16,3.16,0,0,1-.83,2.17,5.59,5.59,0,0,1-7.46.65,5.72,5.72,0,0,1-.73-.66,3.17,3.17,0,0,1-.84-2.17V63H422v6.2a4.06,4.06,0,0,0,3.87,4h.28a4,4,0,0,0,3.87-4V63Z"/><path class="cls-105" d="M441.26,63V73.49l-1-1-6-6-.69-.68-.92-.92V63.5l7.77,7.77V63Zm-8.69,4.21.92.92v6h-.92Z"/><path class="cls-105" d="M452.94,68.56a5.59,5.59,0,0,1-4.89,5.55H443v-.92h5a4.7,4.7,0,0,0,3.9-3.67,4.47,4.47,0,0,0,.1-1,4.73,4.73,0,0,0-.09-.93,4.71,4.71,0,0,0-4.38-3.75H443V63h4.43a5.55,5.55,0,0,1,3.64,1.4,5.63,5.63,0,0,1,1.84,3.41A6.84,6.84,0,0,1,452.94,68.56Zm-9.35,3.87-.61.3V65.55h.92v6.73Z"/><path class="cls-105" d="M454.66,74.11V62.93h.92V74.11Z"/><path class="cls-105" d="M466,63V73.49l-1-1-6.05-6-.68-.68-.92-.92V63.5l7.77,7.77V63Zm-8.69,4.21.92.92v6h-.92Z"/><path class="cls-105" d="M477.84,67.66v6.45h-4.76a5.75,5.75,0,0,1-4-1.61,5.47,5.47,0,0,1,0-7.91,5.75,5.75,0,0,1,4-1.61h4.74v.92h-5.4a4.67,4.67,0,0,0,0,9.29h4.5V68.58h-3.55l-.43-.92Z"/><path class="cls-105" d="M497.6,68.5A5.62,5.62,0,1,1,492,62.88,5.62,5.62,0,0,1,497.6,68.5Zm-1,0A4.64,4.64,0,1,0,492,73.13,4.64,4.64,0,0,0,496.62,68.5Z"/><path class="cls-105" d="M498.91,63.62,502.44,70,501.86,71l-4.11-7.42Zm10.47,0-5.1,9.22-.71,1.27-.05-.1v0l-.53-1,1-1.82,4.23-7.63Z"/><path class="cls-105" d="M511.09,63.88V63h9.77v.92Zm.92,9.31h8.85v.92h-9.77V65.54H512v2.1h7.69v.92H512Z"/><path class="cls-105" d="M532,74.11h-1.08l-3.33-5.46-.1-.15-.15-.26-.3.08h-.13l-.13,0a2.47,2.47,0,0,1-.29.06h-.12l-.11,0h0l-.11,0h-3.19v5.59H522V67.6h3.54a4.47,4.47,0,0,0,1.85-.38,4.73,4.73,0,0,0,1.43-1A4.64,4.64,0,0,0,530,64.37l.17-.53h-7.23v2.79l-.42.21-.5.25V62.92h9.13v0a5.57,5.57,0,0,1-.14,1.22,5.5,5.5,0,0,1-1.53,2.75l-.21.21-.07.06h0l-.09.08h0l-.07.06,0,0v0l-.19.14a.18.18,0,0,0-.07,0h0l-.08.05h-.05l-.33.21.2.34.21.34Z"/><path class="cls-105" d="M543.05,68.56a5.59,5.59,0,0,1-4.89,5.55h-5.08v-.92h5a4.7,4.7,0,0,0,3.9-3.67,4.47,4.47,0,0,0,.1-1,4.73,4.73,0,0,0-.09-.93,4.65,4.65,0,0,0-1.77-2.8,4.6,4.6,0,0,0-2.61-.95h-4.58V63h4.44A5.58,5.58,0,0,1,543,67.77,5.16,5.16,0,0,1,543.05,68.56Zm-9.35,3.87-.62.3V65.55H534v6.73Z"/><path class="cls-105" d="M554.45,74.11h-1.08L550,68.65,550,68.5l-.16-.26-.29.08h-.14a.53.53,0,0,1-.12,0l-.29.06h-.13l-.1,0h-.05l-.12,0h-3.19v5.59h-.92V67.6H548a4.63,4.63,0,0,0,3.27-1.34,4.66,4.66,0,0,0,1.17-1.89l.17-.53h-7.24v2.79l-.42.21-.5.25V62.92h9.13v0a5.56,5.56,0,0,1-.13,1.22,5.5,5.5,0,0,1-1.53,2.75l-.22.21-.07.06h0l-.1.08h0l-.07.06,0,0,0,0-.19.14-.07,0h0l-.07.05h0l-.34.21.21.34.21.34Z"/><path class="cls-105" d="M556.16,74.11V62.93h.92V74.11Z"/><path class="cls-105" d="M560,63.62,563.47,70,562.89,71l-4.1-7.42Zm10.47,0-5.11,9.22-.7,1.27-.06-.1v0l-.53-1,1-1.82,4.22-7.63Z"/><path class="cls-105" d="M572.13,63.88V63h9.77v.92Zm.91,9.31h8.86v.92h-9.77V65.54H573v2.1h7.7v.92H573Z"/><g id="LPF"><path d="M176.67,182.53v1.21H164.18V168.93h1.35v13.6Z"/><path d="M191.19,172.72a3.48,3.48,0,0,1-1.09,2.5,4.4,4.4,0,0,1-2.68,1.16l-.37,0h-7.44v7.34h-1.35v-8.57h8.84a2.47,2.47,0,1,0,0-4.91h-7.49v3.58l-.69.3-.66.3v-5.4h9.06A3.87,3.87,0,0,1,191.19,172.72Z"/><path d="M193.71,170.27v-1.21h14.36v1.21Zm1.35,4.95h11.31v1.21H195.06v7.31h-1.35V172.46h1.35Z"/><path class="cls-106" d="M176.67,182.53v1.21H164.18V168.93h1.35v13.6Z"/><path class="cls-106" d="M191.19,172.72a3.48,3.48,0,0,1-1.09,2.5,4.4,4.4,0,0,1-2.68,1.16l-.37,0h-7.44v7.34h-1.35v-8.57h8.84a2.47,2.47,0,1,0,0-4.91h-7.49v3.58l-.69.3-.66.3v-5.4h9.06A3.87,3.87,0,0,1,191.19,172.72Z"/><path class="cls-106" d="M193.71,170.27v-1.21h14.36v1.21Zm1.35,4.95h11.31v1.21H195.06v7.31h-1.35V172.46h1.35Z"/></g><g id="Cutoff"><path d="M90.93,143.83h1.72a9.61,9.61,0,0,1-3,3.84,9.22,9.22,0,0,1-11.7-.49,9.62,9.62,0,0,1-3.11-5.8,9.32,9.32,0,0,1-.1-1.4,10,10,0,0,1,.09-1.35,9.57,9.57,0,0,1,3.1-5.84,9.24,9.24,0,0,1,6.17-2.37,9.14,9.14,0,0,1,5.67,2,9.67,9.67,0,0,1,3,4.06H91.09a7.79,7.79,0,0,0-7-4.45,7.89,7.89,0,0,0-7.67,6.41,7.94,7.94,0,0,0,0,3.22,7.78,7.78,0,0,0,14.51,2.21Z"/><path d="M111.16,130.49v12.29a5.5,5.5,0,0,1-1.4,3.71,9.26,9.26,0,0,1-1.22,1.12,9.18,9.18,0,0,1-11.25,0,10.11,10.11,0,0,1-1.23-1.13,5.51,5.51,0,0,1-1.39-3.7V130.49h1.54v10.58a6.84,6.84,0,0,0,6.47,6.88h.47a6.84,6.84,0,0,0,6.47-6.89V130.49Z"/><path d="M113,132.07V130.5h16.5v1.57Zm7.33,17.46V134.92h1.53v14.61Z"/><path d="M147.87,140a9.39,9.39,0,1,1-9.38-9.57A9.49,9.49,0,0,1,147.87,140Zm-1.63,0a7.75,7.75,0,1,0-7.75,7.91A7.83,7.83,0,0,0,146.24,140Z"/><path d="M150.75,132.07V130.5h16.33v1.57Zm1.53,6.42h12.87v1.57H152.28v9.47h-1.53V134.91h1.53Z"/><path d="M170,132.07V130.5h16.34v1.57Zm1.54,6.42h12.86v1.57H171.49v9.47H170V134.91h1.54Z"/><path class="cls-107" d="M90.93,143.83h1.72a9.61,9.61,0,0,1-3,3.84,9.22,9.22,0,0,1-11.7-.49,9.62,9.62,0,0,1-3.11-5.8,9.32,9.32,0,0,1-.1-1.4,10,10,0,0,1,.09-1.35,9.57,9.57,0,0,1,3.1-5.84,9.24,9.24,0,0,1,6.17-2.37,9.14,9.14,0,0,1,5.67,2,9.67,9.67,0,0,1,3,4.06H91.09a7.79,7.79,0,0,0-7-4.45,7.89,7.89,0,0,0-7.67,6.41,7.94,7.94,0,0,0,0,3.22,7.78,7.78,0,0,0,14.51,2.21Z"/><path class="cls-107" d="M111.16,130.49v12.29a5.5,5.5,0,0,1-1.4,3.71,9.26,9.26,0,0,1-1.22,1.12,9.18,9.18,0,0,1-11.25,0,10.11,10.11,0,0,1-1.23-1.13,5.51,5.51,0,0,1-1.39-3.7V130.49h1.54v10.58a6.84,6.84,0,0,0,6.47,6.88h.47a6.84,6.84,0,0,0,6.47-6.89V130.49Z"/><path class="cls-107" d="M113,132.07V130.5h16.5v1.57Zm7.33,17.46V134.92h1.53v14.61Z"/><path class="cls-107" d="M147.87,140a9.39,9.39,0,1,1-9.38-9.57A9.49,9.49,0,0,1,147.87,140Zm-1.63,0a7.75,7.75,0,1,0-7.75,7.91A7.83,7.83,0,0,0,146.24,140Z"/><path class="cls-107" d="M150.75,132.07V130.5h16.33v1.57Zm1.53,6.42h12.87v1.57H152.28v9.47h-1.53V134.91h1.53Z"/><path class="cls-107" d="M170,132.07V130.5h16.34v1.57Zm1.54,6.42h12.86v1.57H171.49v9.47H170V134.91h1.54Z"/></g><g id="HPF"><path d="M72.31,169.08v13.74H71.15V176h-9.9v6.82H60.08V169.08h1.17v5.78h9.9v-5.78Z"/><path d="M85.63,172.49a3.37,3.37,0,0,1-.94,2.34,3.59,3.59,0,0,1-2.31,1.09l-.32,0H75.65v6.88H74.49v-8h7.62a2.3,2.3,0,1,0,0-4.6H75.65v3.36l-.59.29-.57.27v-5.06h7.8A3.48,3.48,0,0,1,85.63,172.49Z"/><path d="M87.8,170.19v-1.13h12.37v1.13ZM89,174.84H98.7V176H89v6.85H87.8V172.25H89Z"/><path class="cls-108" d="M72.31,169.08v13.74H71.15V176h-9.9v6.82H60.08V169.08h1.17v5.78h9.9v-5.78Z"/><path class="cls-108" d="M85.63,172.49a3.37,3.37,0,0,1-.94,2.34,3.59,3.59,0,0,1-2.31,1.09l-.32,0H75.65v6.88H74.49v-8h7.62a2.3,2.3,0,1,0,0-4.6H75.65v3.36l-.59.29-.57.27v-5.06h7.8A3.48,3.48,0,0,1,85.63,172.49Z"/><path class="cls-108" d="M87.8,170.19v-1.13h12.37v1.13ZM89,174.84H98.7V176H89v6.85H87.8V172.25H89Z"/></g><g id="INPUT_GAIN" data-name="INPUT GAIN"><path d="M343.85,138.34v11h-7.93a9.5,9.5,0,1,1,0-19h7.89v1.57h-9a8,8,0,0,0,0,15.84h7.5v-7.86H336.4l-.71-1.57Z"/><path d="M352.42,136l.91,1.8-5.85,11.51h-1.82Zm12.45,13.31H363l-7-13.83-1.67-3.28.92-1.8,1.14,2.25Z"/><path d="M367.74,149.34V130.26h1.53v19.08Z"/><path d="M386.6,130.3v18l-1.73-1.77L374.8,136.19,373.65,135l-1.53-1.57v-2.22l12.94,13.25V130.3Zm-14.48,7.17,1.53,1.57v10.3h-1.53Z"/><path class="cls-109" d="M343.85,138.34v11h-7.93a9.5,9.5,0,1,1,0-19h7.89v1.57h-9a8,8,0,0,0,0,15.84h7.5v-7.86H336.4l-.71-1.57Z"/><path class="cls-109" d="M352.42,136l.91,1.8-5.85,11.51h-1.82Zm12.45,13.31H363l-7-13.83-1.67-3.28.92-1.8,1.14,2.25Z"/><path class="cls-109" d="M367.74,149.34V130.26h1.53v19.08Z"/><path class="cls-109" d="M386.6,130.3v18l-1.73-1.77L374.8,136.19,373.65,135l-1.53-1.57v-2.22l12.94,13.25V130.3Zm-14.48,7.17,1.53,1.57v10.3h-1.53Z"/></g><g id="DRY_WET" data-name="DRY/WET"><path d="M528.57,140.9a6.86,6.86,0,0,1-.1,1.2c-.6,3.63-3.91,6.48-8.05,6.93H512v-1.34h8.4a7.48,7.48,0,0,0,6.5-5.37,6.08,6.08,0,0,0,0-2.77,6.8,6.8,0,0,0-2.95-4.1,8.34,8.34,0,0,0-4.36-1.39H512V132.7h7.38a10,10,0,0,1,6.07,2.06,7.92,7.92,0,0,1,3.06,5A7.24,7.24,0,0,1,528.57,140.9ZM513,146.57l-1,.44V136.49h1.53v9.86Z"/><path d="M547.57,149h-1.79l-5.55-8-.16-.23-.26-.38-.49.12h-.05l-.11,0h-.07l-.2.05-.48.08-.12,0h-.09l-.18,0h-.08l-.19,0h0l-.22,0h-5.1V149H530.9V139.5h5.9a8.63,8.63,0,0,0,3.09-.55,8,8,0,0,0,2.37-1.41,6.79,6.79,0,0,0,2-2.78l.28-.77H532.43v4.1l-.69.3-.84.36v-6.1h15.21v0a7.61,7.61,0,0,1-.22,1.78,8,8,0,0,1-2.55,4l-.36.29-.12.09,0,0-.16.12h0l-.11.08,0,0,0,0-.32.2-.12.07h0l0,0-.13.07,0,0h-.06l-.56.31.34.5.35.49Z"/><path d="M563.31,132.65,557,140.23l-.21.25h0l-.27.33-.07.08-.13.16v8h-1.53v-8l-.13-.15-.07-.09-.27-.33h0l-.21-.25-6.31-7.58h1.9l5.33,6.41.47.55.55-.49,0,0,0,0,5.33-6.4Z"/><path d="M564.72,150.06l8.34-19.12h2.07l-8.4,19.12Z"/><path d="M605.52,132.65,598.16,147l-.93,1.83-.05-.13-.1.23-1-1.93-4.44-8.66-.65-1.28-.66,1.28L585.9,147l-.11.22-.93,1.8-.9-1.75h0l-.13-.26-7.36-14.36h1.8l5.94,11.58.65,1.28.66-1.28,4.44-8.66,1-2,1,2,4.43,8.65.72,1.62.62-1.64,5.92-11.55Z"/><path d="M608.39,134V132.7h16.28V134Zm1.53,13.65h14.75V149H608.39V136.49h1.53v3.07h12.82v1.34H609.92Z"/><path d="M626.48,134.05V132.7h16.43v1.35Zm7.3,15V136.49h1.53V149Z"/><path class="cls-110" d="M528.57,140.9a6.86,6.86,0,0,1-.1,1.2c-.6,3.63-3.91,6.48-8.05,6.93H512v-1.34h8.4a7.48,7.48,0,0,0,6.5-5.37,6.08,6.08,0,0,0,0-2.77,6.8,6.8,0,0,0-2.95-4.1,8.34,8.34,0,0,0-4.36-1.39H512V132.7h7.38a10,10,0,0,1,6.07,2.06,7.92,7.92,0,0,1,3.06,5A7.24,7.24,0,0,1,528.57,140.9ZM513,146.57l-1,.44V136.49h1.53v9.86Z"/><path class="cls-110" d="M547.57,149h-1.79l-5.55-8-.16-.23-.26-.38-.49.12h-.05l-.11,0h-.07l-.2.05-.48.08-.12,0h-.09l-.18,0h-.08l-.19,0h0l-.22,0h-5.1V149H530.9V139.5h5.9a8.63,8.63,0,0,0,3.09-.55,8,8,0,0,0,2.37-1.41,6.79,6.79,0,0,0,2-2.78l.28-.77H532.43v4.1l-.69.3-.84.36v-6.1h15.21v0a7.61,7.61,0,0,1-.22,1.78,8,8,0,0,1-2.55,4l-.36.29-.12.09,0,0-.16.12h0l-.11.08,0,0,0,0-.32.2-.12.07h0l0,0-.13.07,0,0h-.06l-.56.31.34.5.35.49Z"/><path class="cls-110" d="M563.31,132.65,557,140.23l-.21.25h0l-.27.33-.07.08-.13.16v8h-1.53v-8l-.13-.15-.07-.09-.27-.33h0l-.21-.25-6.31-7.58h1.9l5.33,6.41.47.55.55-.49,0,0,0,0,5.33-6.4Z"/><path class="cls-110" d="M564.72,150.06l8.34-19.12h2.07l-8.4,19.12Z"/><path class="cls-110" d="M605.52,132.65,598.16,147l-.93,1.83-.05-.13-.1.23-1-1.93-4.44-8.66-.65-1.28-.66,1.28L585.9,147l-.11.22-.93,1.8-.9-1.75h0l-.13-.26-7.36-14.36h1.8l5.94,11.58.65,1.28.66-1.28,4.44-8.66,1-2,1,2,4.43,8.65.72,1.62.62-1.64,5.92-11.55Z"/><path class="cls-110" d="M608.39,134V132.7h16.28V134Zm1.53,13.65h14.75V149H608.39V136.49h1.53v3.07h12.82v1.34H609.92Z"/><path class="cls-110" d="M626.48,134.05V132.7h16.43v1.35Zm7.3,15V136.49h1.53V149Z"/></g><g id="OUTPUT_GAIN" data-name="OUTPUT GAIN"><path d="M765.4,141.76a9.35,9.35,0,1,1-9.35-9.57A9.48,9.48,0,0,1,765.4,141.76Zm-1.63,0a7.72,7.72,0,1,0-7.72,7.91A7.82,7.82,0,0,0,763.77,141.76Z"/><path d="M784.13,132.3v12.29a5.5,5.5,0,0,1-1.4,3.71,10.7,10.7,0,0,1-1.21,1.12,9.12,9.12,0,0,1-11.21,0,9.34,9.34,0,0,1-1.22-1.13,5.48,5.48,0,0,1-1.39-3.7V132.3h1.53v10.58a6.83,6.83,0,0,0,6.45,6.88h.47a6.81,6.81,0,0,0,6.44-6.88V132.3Z"/><path d="M785.94,133.88v-1.57h16.44v1.57Zm7.3,17.46V136.72h1.53v14.62Z"/><path d="M818.84,137.06a4.79,4.79,0,0,1-1.24,3.23,4.53,4.53,0,0,1-3,1.5l-.42,0h-8.44v9.51h-1.53V140.23h10a3.18,3.18,0,0,0,0-6.36h-8.5v4.64l-.78.4-.75.38v-7h10.27A4.69,4.69,0,0,1,818.84,137.06Z"/><path d="M837.23,132.3v12.29a5.5,5.5,0,0,1-1.4,3.71,10.7,10.7,0,0,1-1.21,1.12,9.12,9.12,0,0,1-11.21,0,9.34,9.34,0,0,1-1.22-1.13,5.48,5.48,0,0,1-1.39-3.7V132.3h1.53v10.58a6.83,6.83,0,0,0,6.45,6.88h.47a6.81,6.81,0,0,0,6.44-6.88V132.3Z"/><path d="M839,133.88v-1.57h16.43v1.57Zm7.3,17.46V136.72h1.53v14.62Z"/><path class="cls-111" d="M765.4,141.76a9.35,9.35,0,1,1-9.35-9.57A9.48,9.48,0,0,1,765.4,141.76Zm-1.63,0a7.72,7.72,0,1,0-7.72,7.91A7.82,7.82,0,0,0,763.77,141.76Z"/><path class="cls-111" d="M784.13,132.3v12.29a5.5,5.5,0,0,1-1.4,3.71,10.7,10.7,0,0,1-1.21,1.12,9.12,9.12,0,0,1-11.21,0,9.34,9.34,0,0,1-1.22-1.13,5.48,5.48,0,0,1-1.39-3.7V132.3h1.53v10.58a6.83,6.83,0,0,0,6.45,6.88h.47a6.81,6.81,0,0,0,6.44-6.88V132.3Z"/><path class="cls-111" d="M785.94,133.88v-1.57h16.44v1.57Zm7.3,17.46V136.72h1.53v14.62Z"/><path class="cls-111" d="M818.84,137.06a4.79,4.79,0,0,1-1.24,3.23,4.53,4.53,0,0,1-3,1.5l-.42,0h-8.44v9.51h-1.53V140.23h10a3.18,3.18,0,0,0,0-6.36h-8.5v4.64l-.78.4-.75.38v-7h10.27A4.69,4.69,0,0,1,818.84,137.06Z"/><path class="cls-111" d="M837.23,132.3v12.29a5.5,5.5,0,0,1-1.4,3.71,10.7,10.7,0,0,1-1.21,1.12,9.12,9.12,0,0,1-11.21,0,9.34,9.34,0,0,1-1.22-1.13,5.48,5.48,0,0,1-1.39-3.7V132.3h1.53v10.58a6.83,6.83,0,0,0,6.45,6.88h.47a6.81,6.81,0,0,0,6.44-6.88V132.3Z"/><path class="cls-111" d="M839,133.88v-1.57h16.43v1.57Zm7.3,17.46V136.72h1.53v14.62Z"/></g><path class="cls-112" d="M724.53,432.11s0,.05,0,.05h-.37a.17.17,0,0,0-.16.09l-1.35,3.35c-.44,1.07-1,2.43-1.65,4.06-.08.19-.14.28-.19.28s-.1-.07-.15-.2c-.8-2-1.35-3.34-1.66-4-.21-.52-.43-1-.64-1.55a14,14,0,0,0-.87-1.8.45.45,0,0,0-.33-.21h-.26a.08.08,0,0,1,0,0v-.2a.05.05,0,0,1,.06-.06h2.56s.07,0,.07,0v.19c0,.05,0,.07,0,.07h-.72a.13.13,0,0,0-.15.15.75.75,0,0,0,.07.28l1.15,2.78c.71,1.83,1.11,2.81,1.17,2.94s.06.12.09.12,0,0,.08-.07.3-.68.68-1.65c.19-.51.39-1,.58-1.52,0-.06.16-.39.38-1l.38-1a2.87,2.87,0,0,0,.14-.76c0-.15-.06-.23-.18-.23h-.66s-.08,0-.08-.05v-.2s0-.06.05-.06h2s.06,0,.06,0Z"/><path class="cls-112" d="M728.43,439.76s0,.06,0,.06h-3.2s-.06,0-.06-.07v-.19c0-.05,0-.07.06-.07h1.07c.08,0,.12-.11.12-.32,0,0,0-.93,0-2.66s0-2.61,0-2.66q0-.84,0-1.08c0-.27-.25-.4-.64-.4h-.45a.06.06,0,0,1-.07-.07v-.18a.06.06,0,0,1,.07-.07h.63a6,6,0,0,0,1-.06l.29-.07c.06,0,.09,0,.09.13s0,.94,0,2.84,0,2.92,0,3.07c0,1,.08,1.53.25,1.53h.91a.05.05,0,0,1,.06.06Z"/><path class="cls-112" d="M730.54,439.4a.46.46,0,0,1-.16.36.54.54,0,0,1-.38.14c-.36,0-.54-.16-.54-.5s.22-.56.65-.56S730.54,439,730.54,439.4Z"/><path class="cls-112" d="M737,435.85a7.39,7.39,0,0,1-.07,1.2,5.33,5.33,0,0,1-.35,1.11,2.85,2.85,0,0,1-1.05,1.39,3,3,0,0,1-.5.27,1.89,1.89,0,0,1-.6.07,2.41,2.41,0,0,1-.9-.13,6.91,6.91,0,0,1-.6-.39,2.82,2.82,0,0,1-.79-1.14,5.21,5.21,0,0,1-.38-2.15,6.12,6.12,0,0,1,.68-3.07,1.93,1.93,0,0,1,.88-.84,2.4,2.4,0,0,1,1.11-.28,2.35,2.35,0,0,1,1.83,1A4.74,4.74,0,0,1,737,435.85Zm-.72.63a7.32,7.32,0,0,0-.32-2.37,3.53,3.53,0,0,0-.74-1.35,1.74,1.74,0,0,0-1.28-.45,1,1,0,0,0-.83.37,2.45,2.45,0,0,0-.47,1.13,7.51,7.51,0,0,0-.12,1.31,11.34,11.34,0,0,0,.09,1.27,8.94,8.94,0,0,0,.21,1.2c.31,1,.63,1.57,1,1.73a2.18,2.18,0,0,0,.94.24,1.17,1.17,0,0,0,.92-.38A4.12,4.12,0,0,0,736.29,436.48Z"/><path class="cls-112" d="M752.88,435.78a3.91,3.91,0,0,1-1.62,3.51,3.21,3.21,0,0,1-1.34.52,9,9,0,0,1-1.34.07l-1.08,0-1.11,0h-.65a.05.05,0,0,1-.06-.06v-.08a.49.49,0,0,1,0-.11s0-.06.07-.06h.82q.09,0,.09-.18c0-.06,0-.57,0-1.54s0-1.5,0-1.59v-2.85c0-.79-.09-1.19-.22-1.19h-.82c-.05,0-.07,0-.07-.05v-.2s0-.06.08-.06h3.62a3.71,3.71,0,0,1,1.43.23c.23.1.41.19.52.25a4.49,4.49,0,0,1,.72.57A3.9,3.9,0,0,1,752.88,435.78Zm-.81.79a4.52,4.52,0,0,0-.92-2.91,3.61,3.61,0,0,0-1.41-1.11,4.38,4.38,0,0,0-1.59-.32,2.27,2.27,0,0,0-.45,0c-.09,0-.13.1-.13.23s0,.54,0,1.45v3.91q0,1.53.18,1.56a9.51,9.51,0,0,0,1.58.09,2.59,2.59,0,0,0,1.89-.64A3,3,0,0,0,752.07,436.57Z"/><path class="cls-112" d="M758.3,439s0,0,0,0l-.31.27a3.46,3.46,0,0,1-.59.31,3,3,0,0,1-1.28.27,2.24,2.24,0,0,1-1.64-.61,2.45,2.45,0,0,1-.74-1.81,5.16,5.16,0,0,1,.08-1.12,2.8,2.8,0,0,1,.72-1.38,2,2,0,0,1,1.48-.59,1.55,1.55,0,0,1,.69.13,5.06,5.06,0,0,1,.67.44,2.16,2.16,0,0,1,.75.81.45.45,0,0,1,0,.18s0,.08-.1.11a12,12,0,0,1-1.31.29,11.22,11.22,0,0,1-1.65.22h-.56s-.07.09-.07.27a2.5,2.5,0,0,0,.89,2,2.36,2.36,0,0,0,1.55.41,2.93,2.93,0,0,0,.92-.12.8.8,0,0,0,.34-.18l.06,0s0,0,0,0Zm-1.1-3.13a.4.4,0,0,0-.06-.16,2.48,2.48,0,0,0-.63-.73,1.38,1.38,0,0,0-.88-.3.93.93,0,0,0-.71.45,2.6,2.6,0,0,0-.26.53,1.69,1.69,0,0,0-.15.58c0,.06,0,.1.07.1l1-.09a5.72,5.72,0,0,0,1.53-.27C757.17,436,757.2,435.94,757.2,435.9Z"/><path class="cls-112" d="M764,434.74s0,0,0,0h-.29s-.1,0-.13.12-.22.51-.37.88c-.44,1-.92,2.13-1.42,3.29-.06.16-.14.35-.24.58s-.13.22-.17.22-.06,0-.09-.09-.05-.13-.07-.19l-.59-1.36c-.38-.88-.78-1.84-1.22-2.9-.14-.37-.27-.55-.4-.55h-.34c-.05,0-.07,0-.07-.06v-.19s0-.06.07-.06h2.32a.05.05,0,0,1,.06.06v.19s0,.06,0,.06h-.71c-.05,0-.08,0-.08.12a.63.63,0,0,0,.05.23s.1.28.27.71c.35.85.71,1.72,1.08,2.59.06.09.09.13.11.13s.05,0,.08-.09.35-.78.73-1.75a5.11,5.11,0,0,0,.45-1.68c0-.17,0-.26-.16-.26h-.57a.05.05,0,0,1-.06-.06v-.18s0-.07.06-.07h1.71c.05,0,.07,0,.07.06Z"/><path class="cls-112" d="M768.94,439a.08.08,0,0,1,0,0,3,3,0,0,1-.3.27,3.9,3.9,0,0,1-.59.31,3,3,0,0,1-1.28.27,2.23,2.23,0,0,1-1.64-.61,2.46,2.46,0,0,1-.75-1.81,5,5,0,0,1,.09-1.12,2.65,2.65,0,0,1,.72-1.38,2,2,0,0,1,1.47-.59,1.55,1.55,0,0,1,.69.13,5,5,0,0,1,.68.44,2.2,2.2,0,0,1,.74.81.49.49,0,0,1,0,.18s0,.08-.11.11a17.24,17.24,0,0,1-3,.51h-.56c-.05,0-.07.09-.07.27a2.49,2.49,0,0,0,.88,2,2.41,2.41,0,0,0,1.56.41,2.86,2.86,0,0,0,.91-.12.86.86,0,0,0,.35-.18l0,0a.07.07,0,0,1,0,0S768.94,439,768.94,439Zm-1.09-3.13a.4.4,0,0,0-.06-.16,2.48,2.48,0,0,0-.63-.73,1.4,1.4,0,0,0-.88-.3.91.91,0,0,0-.71.45,3.16,3.16,0,0,0-.27.53,1.69,1.69,0,0,0-.15.58c0,.06,0,.1.07.1l1-.09a5.63,5.63,0,0,0,1.52-.27C767.82,436,767.85,435.94,767.85,435.9Z"/><path class="cls-112" d="M772.26,439.78s0,0-.06,0h-2.92s-.07,0-.07-.06v-.2c0-.05,0-.07.06-.07h1c.08,0,.12-.05.12-.14v-6.5c0-.87-.08-1.3-.23-1.3h-.72s-.07,0-.07-.07v-.19c0-.06,0-.09,0-.09h.45a3.37,3.37,0,0,0,.87-.12q.45-.12.39-.12c.07,0,.11.06.11.17s0,1.17,0,3.48,0,3.5,0,3.58c0,.86.07,1.3.22,1.3h.85a.05.05,0,0,1,.06.06Z"/><path class="cls-112" d="M777.86,437.11a3.44,3.44,0,0,1-.25,1.36,2.35,2.35,0,0,1-1.07,1.12,2.44,2.44,0,0,1-1.23.3,3.05,3.05,0,0,1-1.13-.14,2.14,2.14,0,0,1-1.08-1,3.49,3.49,0,0,1-.36-1.55,3.19,3.19,0,0,1,.39-1.6,2.44,2.44,0,0,1,1-.95,3.4,3.4,0,0,1,1.43-.25,2.16,2.16,0,0,1,1.19.28,2.12,2.12,0,0,1,.85,1A3.74,3.74,0,0,1,777.86,437.11Zm-.82.29a2.9,2.9,0,0,0-.58-1.91,2,2,0,0,0-1.55-.71,1.73,1.73,0,0,0-.68.09.69.69,0,0,0-.28.27,2.68,2.68,0,0,0-.35,1.5,4.74,4.74,0,0,0,.37,1.9,1.76,1.76,0,0,0,.69.85,1.57,1.57,0,0,0,.83.23,1.63,1.63,0,0,0,.81-.17,1.49,1.49,0,0,0,.57-.78A3.76,3.76,0,0,0,777,437.4Z"/><path class="cls-112" d="M784.35,437.16a2.68,2.68,0,0,1-.76,2,2.32,2.32,0,0,1-.71.5,3.3,3.3,0,0,1-1.32.22,2.88,2.88,0,0,1-1.34-.4c-.09,0-.13,0-.13.05v1.62a5.73,5.73,0,0,0,.06.81c.05.41.13.61.24.61h1.16s0,0,0,.06v.18s0,.08,0,.08h-3.15s-.08,0-.08-.05v-.2c0-.05,0-.07.08-.07h.79a.08.08,0,0,0,.09-.09s0-1.1,0-3.22,0-3.2,0-3.28c0-.81-.06-1.21-.18-1.21h-.74s-.07,0-.07-.07v-.18c0-.05,0-.07,0-.07h.56c.35,0,.61,0,.81,0l.18,0,.15,0s.06.05.06.14,0,.15,0,.36,0,.35,0,.39,0,.17,0,.17l0,0a5.54,5.54,0,0,1,1-.71,2.07,2.07,0,0,1,1-.28,2,2,0,0,1,1.43.64A3,3,0,0,1,784.35,437.16Zm-.75.25a2.5,2.5,0,0,0-.2-.91,2,2,0,0,0-.44-.72,1.88,1.88,0,0,0-1.41-.55,2.34,2.34,0,0,0-.94.14,5.15,5.15,0,0,0-.48.31.27.27,0,0,0,0,.15V439c0,.09,0,.15.06.17a3.48,3.48,0,0,0,1.6.33,1.73,1.73,0,0,0,1.54-.83A2.25,2.25,0,0,0,783.6,437.41Z"/><path class="cls-112" d="M789.7,439s0,0,0,0l-.31.27a3.46,3.46,0,0,1-.59.31,3,3,0,0,1-1.28.27,2.24,2.24,0,0,1-1.64-.61,2.49,2.49,0,0,1-.74-1.81,5.16,5.16,0,0,1,.08-1.12,2.8,2.8,0,0,1,.72-1.38,2,2,0,0,1,1.48-.59,1.55,1.55,0,0,1,.69.13,5.06,5.06,0,0,1,.67.44,2.16,2.16,0,0,1,.75.81.45.45,0,0,1,0,.18s0,.08-.1.11a12,12,0,0,1-1.31.29,11.22,11.22,0,0,1-1.65.22h-.56c-.05,0-.07.09-.07.27a2.5,2.5,0,0,0,.89,2,2.36,2.36,0,0,0,1.55.41,2.93,2.93,0,0,0,.92-.12.8.8,0,0,0,.34-.18l.06,0s0,0,0,0Zm-1.1-3.13a.4.4,0,0,0-.06-.16,2.35,2.35,0,0,0-.63-.73,1.38,1.38,0,0,0-.88-.3.94.94,0,0,0-.71.45,2.6,2.6,0,0,0-.26.53,1.69,1.69,0,0,0-.15.58c0,.06,0,.1.07.1l1-.09a5.72,5.72,0,0,0,1.53-.27C788.57,436,788.6,435.94,788.6,435.9Z"/><path class="cls-112" d="M796.34,439.14c0,.07,0,.11-.05.12a13.34,13.34,0,0,0-1.29.53,2.24,2.24,0,0,0-.46.23c-.06,0-.09,0-.09-.14s0-.12,0-.26,0-.24,0-.27a1.94,1.94,0,0,0,0-.35c0-.07-.06-.08-.13-.06-.22.18-.5.38-.81.61a2.33,2.33,0,0,1-1.3.34,1.76,1.76,0,0,1-.83-.18,1.89,1.89,0,0,1-.79-.9,3.92,3.92,0,0,1-.33-1.6,2.93,2.93,0,0,1,.72-2.16,2.22,2.22,0,0,1,1.63-.63,2.73,2.73,0,0,1,.94.15,7,7,0,0,1,.74.37c.05,0,.08,0,.08-.11s0-.41,0-1.1,0-1.08,0-1.14c0-.7-.08-1-.23-1h-.82s-.06,0-.06-.07v-.15q0-.09.06-.09h.28a3.25,3.25,0,0,0,1.26-.21l.32-.13c.05,0,.07.06.07.16s0,.26,0,.74,0,.78,0,.87v5.51c0,.77.07,1.14.22,1.09l.6-.2a.83.83,0,0,1,.25-.09S796.34,439,796.34,439.14Zm-1.89-.78s0-.17,0-.61v-1.17a5.8,5.8,0,0,0-.1-1.22.32.32,0,0,0-.18-.24,3,3,0,0,0-1.44-.34,1.55,1.55,0,0,0-1.24.48A2.65,2.65,0,0,0,791,437a3,3,0,0,0,.17.94,1.88,1.88,0,0,0,.3.62,1.54,1.54,0,0,0,.54.48,2,2,0,0,0,.83.13,2.59,2.59,0,0,0,1.56-.54A.35.35,0,0,0,794.45,438.36Z"/><path class="cls-112" d="M804.83,437.22a2.71,2.71,0,0,1-.8,2,2.41,2.41,0,0,1-1.71.65,3.38,3.38,0,0,1-1.47-.3,1.48,1.48,0,0,0-.47-.16c-.09,0-.17.1-.25.3s-.07.22-.1.33-.06.12-.1.12h0q-.09,0-.09-.21s0-.75,0-2.16,0-2.18,0-2.29c0-.73,0-1.41,0-2.05s0-.94,0-.9c0-.7-.08-1.05-.25-1.05H799c-.05,0-.07,0-.07-.07v-.14c0-.07,0-.1.06-.1h.2a3.13,3.13,0,0,0,1.31-.22.64.64,0,0,1,.24-.07.07.07,0,0,1,.07.06.35.35,0,0,1,0,.12l-.06,1.87c-.05,1.23-.07,2-.07,2.25,0,.09,0,.12.08.08l.91-.6a2.07,2.07,0,0,1,1-.27,2,2,0,0,1,1.63.77A3.08,3.08,0,0,1,804.83,437.22Zm-.7.31a2.67,2.67,0,0,0-.53-1.7,1.83,1.83,0,0,0-1.53-.58,2.21,2.21,0,0,0-1.37.39.22.22,0,0,0-.05.14v2a6.67,6.67,0,0,0,.12,1.43s0,.05.07.08a2,2,0,0,0,.6.18,3.69,3.69,0,0,0,.84.1,1.86,1.86,0,0,0,1.35-.54A2.09,2.09,0,0,0,804.13,437.53Z"/><path class="cls-112" d="M810.77,434.71a.08.08,0,0,1,0,.06h-.36a.17.17,0,0,0-.16.11,17.22,17.22,0,0,0-.78,2c-.13.4-.58,1.52-1.33,3.36A24.08,24.08,0,0,1,807,442.6a.25.25,0,0,1-.15.11l-.69.09-.53.08c-.07,0-.11,0-.11-.09s0-.08.11-.11a2.84,2.84,0,0,0,1.15-1,8.14,8.14,0,0,0,1.1-1.73.3.3,0,0,0,0-.21c-.34-.67-.74-1.61-1.22-2.85-.17-.43-.41-1-.71-1.66-.1-.29-.21-.44-.34-.44h-.21c-.05,0-.08,0-.08-.07v-.18s0,0,0,0a.1.1,0,0,1,.07,0h2.24a.05.05,0,0,1,.06.06v.21s0,0-.06,0h-.72c-.08,0-.12.05-.12.13a1.07,1.07,0,0,0,.06.23c0,.13.26.67.66,1.61.25.65.52,1.32.81,2,0,.07.08.06.11,0a12.87,12.87,0,0,0,.71-1.84,8.43,8.43,0,0,0,.41-1.69c0-.3-.07-.46-.22-.46h-.55s-.08,0-.08,0v-.21a.05.05,0,0,1,.06-.06h2l.06,0v.22Z"/><path class="cls-112" d="M822.16,432.09c0,.05,0,.07,0,.07h-.82c-.08,0-.12.06-.12.16s0,.57,0,1.6,0,1.59,0,1.67,0,.79,0,2.1,0,2,0,2.07,0,.28-.07.28a.16.16,0,0,1-.14-.07c-.35-.48-1.41-1.83-3.16-4.06-.62-.83-1.35-1.76-2.19-2.78,0-.05-.09,0-.11,0s0,.77-.09,2.15-.06,2.28-.06,2.63c0,1,.1,1.56.31,1.56h.78s.06,0,.06.05v.22s0,0,0,0h-2.3c-.05,0-.08,0-.08,0v-.22s0-.06.08-.06h.72a.08.08,0,0,0,.09-.09v-.86c0-.23,0-1.16.09-2.8s.08-2.48.08-2.51c0-.72-.25-1.09-.74-1.09h-.41a0,0,0,0,1,0-.05v-.2a.05.05,0,0,1,.06-.06h1.85a.14.14,0,0,1,.13.1c0,.06.36.5,1,1.32l1,1.37q1.32,1.74,2.79,3.6l0,0s0-.06.06-.17V436c0-1.31,0-2,0-2.13-.06-1.15-.2-1.73-.43-1.73h-.8s-.08,0-.08-.05v-.2s0-.06.07-.06h2.55s.07,0,.07,0Z"/><path class="cls-112" d="M827.83,437.11a3.44,3.44,0,0,1-.25,1.36,2.35,2.35,0,0,1-1.07,1.12,2.46,2.46,0,0,1-1.23.3,3.12,3.12,0,0,1-1.14-.14,2.16,2.16,0,0,1-1.07-1,3.49,3.49,0,0,1-.36-1.55,3.19,3.19,0,0,1,.39-1.6,2.44,2.44,0,0,1,1-.95,3.4,3.4,0,0,1,1.43-.25,2,2,0,0,1,2,1.31A3.74,3.74,0,0,1,827.83,437.11Zm-.83.29a2.85,2.85,0,0,0-.58-1.91,1.92,1.92,0,0,0-1.54-.71,1.7,1.7,0,0,0-.68.09.69.69,0,0,0-.28.27,2.68,2.68,0,0,0-.35,1.5,4.74,4.74,0,0,0,.37,1.9,1.76,1.76,0,0,0,.69.85,1.57,1.57,0,0,0,.83.23,1.63,1.63,0,0,0,.81-.17,1.43,1.43,0,0,0,.56-.78A3.53,3.53,0,0,0,827,437.4Z"/><path class="cls-112" d="M833.34,439.44a.13.13,0,0,1,0,.07,3.36,3.36,0,0,1-.48.43.14.14,0,0,1-.1,0,1,1,0,0,1-.69-.32,2,2,0,0,1-.47-.72c0-.07-.05-.07-.09,0a1.86,1.86,0,0,1-.33.34,2.36,2.36,0,0,1-.37.3,2.12,2.12,0,0,1-1,.33,1.15,1.15,0,0,1-.66-.15.86.86,0,0,1-.34-.73,1.88,1.88,0,0,1,.37-1.09,2,2,0,0,1,.8-.61,6.77,6.77,0,0,1,1.58-.45s.06-.05.06-.13a7.67,7.67,0,0,0,0-1.21.59.59,0,0,0-.27-.47,1.22,1.22,0,0,0-.66-.15,1.69,1.69,0,0,0-.84.15c-.1.06-.14.13-.12.2v.17a.77.77,0,0,1-.14.45.59.59,0,0,1-.49.33c-.14,0-.2-.09-.2-.27a1,1,0,0,1,.26-.57,2.39,2.39,0,0,1,.58-.53,3,3,0,0,1,1.56-.35,1.38,1.38,0,0,1,.95.28,1.18,1.18,0,0,1,.21.84c0,.31,0,.77,0,1.39s-.06,1-.06,1.06a1.22,1.22,0,0,0,1,1.32S833.34,439.41,833.34,439.44Zm-1.81-2.2c0-.07,0-.11-.1-.11a2.7,2.7,0,0,0-1,.25c-.63.29-.95.67-.95,1.16a.74.74,0,0,0,.22.61.9.9,0,0,0,.58.14,1.58,1.58,0,0,0,1-.45.45.45,0,0,0,.16-.3C831.5,438.07,831.53,437.64,831.53,437.24Z"/><path class="cls-112" d="M839.79,439.78s0,0,0,0h-2.42a.05.05,0,0,1-.06-.06v-.17s0-.08.06-.08h.54c.06,0,.09-.05.1-.14A11.17,11.17,0,0,0,838,438c0-.33,0-.66,0-1s0-.49,0-.47a1.92,1.92,0,0,0-.21-1,1,1,0,0,0-.88-.33,2.49,2.49,0,0,0-1.4.36.22.22,0,0,0-.07.16s0,.4,0,1.17v1.23c0,1,.08,1.46.25,1.46h.8s0,0,0,.05v.21s0,0,0,0h-2.67s-.06,0-.06,0v-.2a.07.07,0,0,1,.07-.07h.71c.06,0,.09,0,.09-.1v-6.49c0-.91-.06-1.37-.18-1.37h-.8a.08.08,0,0,1,0-.06v-.18a.43.43,0,0,1,0-.05H834a5.6,5.6,0,0,0,1-.15,4,4,0,0,1,.48-.19c.07,0,.1.07.1.2,0,0,0,.53-.06,1.7s0,1.94,0,2.31c0,.1,0,.14.07.11l.41-.28c.1-.08.25-.17.44-.29a2.48,2.48,0,0,1,1.09-.28,1.33,1.33,0,0,1,.92.38,1.68,1.68,0,0,1,.45,1.28s0,.4,0,1.1,0,1.07,0,1.12q0,1.26.15,1.26h.81s0,0,0,.06Z"/><path class="cls-112" d="M850.15,435.78a3.91,3.91,0,0,1-1.62,3.51,3.26,3.26,0,0,1-1.35.52,8.83,8.83,0,0,1-1.34.07l-1.08,0-1.1,0H843a.05.05,0,0,1-.06-.06.32.32,0,0,0,0-.08v-.11s0-.06.07-.06h.82q.09,0,.09-.18c0-.06,0-.57,0-1.54s0-1.5,0-1.59v-1.44c0-.85,0-1.32,0-1.41,0-.79-.1-1.19-.22-1.19h-.83s-.06,0-.06-.05v-.2s0-.06.08-.06h3.62a3.75,3.75,0,0,1,1.43.23c.23.1.4.19.51.25a3.75,3.75,0,0,1,.72.57A3.86,3.86,0,0,1,850.15,435.78Zm-.82.79a4.52,4.52,0,0,0-.91-2.91,3.57,3.57,0,0,0-1.42-1.11,4.29,4.29,0,0,0-1.58-.32,2.39,2.39,0,0,0-.46,0c-.08,0-.13.1-.13.23v1.45c0,.91,0,1.42,0,1.54v2.37c0,1,.06,1.54.19,1.56a9.43,9.43,0,0,0,1.58.09,2.59,2.59,0,0,0,1.89-.64A3,3,0,0,0,849.33,436.57Z"/><path class="cls-112" d="M855.56,439a.08.08,0,0,1,0,0,3,3,0,0,1-.3.27,3.9,3.9,0,0,1-.59.31,3,3,0,0,1-1.28.27,2.23,2.23,0,0,1-1.64-.61,2.46,2.46,0,0,1-.75-1.81,5.9,5.9,0,0,1,.08-1.12,2.8,2.8,0,0,1,.72-1.38,2.05,2.05,0,0,1,1.48-.59,1.55,1.55,0,0,1,.69.13,5,5,0,0,1,.68.44,2.2,2.2,0,0,1,.74.81.49.49,0,0,1,0,.18s0,.08-.11.11a17.24,17.24,0,0,1-3,.51h-.56s-.07.09-.07.27a2.49,2.49,0,0,0,.88,2,2.41,2.41,0,0,0,1.56.41,2.86,2.86,0,0,0,.91-.12.86.86,0,0,0,.35-.18l0,0a.07.07,0,0,1,0,0Zm-1.09-3.13a.4.4,0,0,0-.06-.16,2.48,2.48,0,0,0-.63-.73,1.4,1.4,0,0,0-.88-.3.91.91,0,0,0-.71.45,3.16,3.16,0,0,0-.27.53,1.69,1.69,0,0,0-.15.58c0,.06,0,.1.07.1l1-.09a5.63,5.63,0,0,0,1.52-.27C854.44,436,854.47,435.94,854.47,435.9Z"/><path class="cls-112" d="M860.7,439a.08.08,0,0,1,0,0,2.18,2.18,0,0,1-.31.27,3.73,3.73,0,0,1-.58.31,3.06,3.06,0,0,1-1.28.27,2.23,2.23,0,0,1-1.64-.61,2.46,2.46,0,0,1-.75-1.81,5.9,5.9,0,0,1,.08-1.12,2.8,2.8,0,0,1,.72-1.38,2,2,0,0,1,1.48-.59,1.55,1.55,0,0,1,.69.13,5,5,0,0,1,.68.44,2.2,2.2,0,0,1,.74.81.49.49,0,0,1,.05.18s0,.08-.11.11a17.73,17.73,0,0,1-3,.51H857c-.05,0-.07.09-.07.27a2.49,2.49,0,0,0,.88,2,2.41,2.41,0,0,0,1.56.41,2.91,2.91,0,0,0,.91-.12.86.86,0,0,0,.35-.18l0,0a.07.07,0,0,1,0,0Zm-1.09-3.13a.4.4,0,0,0-.06-.16,2.38,2.38,0,0,0-.64-.73,1.35,1.35,0,0,0-.87-.3.91.91,0,0,0-.71.45,2.55,2.55,0,0,0-.27.53,1.69,1.69,0,0,0-.15.58c0,.06,0,.1.07.1l1-.09a5.71,5.71,0,0,0,1.52-.27C859.57,436,859.61,435.94,859.61,435.9Z"/><path class="cls-112" d="M864.93,439.11a.2.2,0,0,1,0,.14,3.53,3.53,0,0,1-1.86.68,1.09,1.09,0,0,1-1.22-1.25c0-.05,0-.48,0-1.3s0-1.25,0-1.29,0-.22,0-.51,0-.44,0-.45a.2.2,0,0,0-.11-.18l-.46-.2a.14.14,0,0,1-.07-.14c0-.05,0-.09.09-.14l1.25-1.05a.26.26,0,0,1,.15-.05c.06,0,.08.05.06.17a3.94,3.94,0,0,0-.07.77c0,.13,0,.2.06.2l1,0,1,0c.08,0,.11,0,.09.13a1,1,0,0,1-.09.33c0,.06-.05.09-.1.09h-1.9c-.05,0-.07,0-.07.06v3.25a1.51,1.51,0,0,0,.14.74c.11.18.4.26.89.26a3.07,3.07,0,0,0,.94-.18l.25-.1S864.93,439,864.93,439.11Z"/><path class="cls-112" d="M870.71,439a1.77,1.77,0,0,1-.07.25,1.77,1.77,0,0,0-.07.25l-.06.22c0,.06-.08.09-.13.09h-4.89c-.1,0-.14,0-.14-.11a.36.36,0,0,1,.1-.21c.19-.23.82-.84,1.9-1.83a25,25,0,0,0,1.91-1.87c.23-.26.35-.43.35-.51s-.07-.1-.2-.1h-1.89a6.9,6.9,0,0,0-1,.05,3.79,3.79,0,0,0-.7.12.56.56,0,0,1-.18.1s-.06,0-.06-.08,0-.09.08-.44a1.93,1.93,0,0,1,.1-.44c0-.05.05-.08.13-.08h.4l1.84.05,1.88,0,.31,0h.23c.06,0,.09,0,.09.08a.42.42,0,0,1-.08.18l-.77.87a25.4,25.4,0,0,1-2.08,2.11,13.74,13.74,0,0,0-1.07,1c-.11.12-.17.2-.17.24s.07.11.2.11h1.71a15.1,15.1,0,0,0,1.72-.08,2,2,0,0,0,.35-.07l.19-.06S870.71,439,870.71,439Z"/></g></svg>