<svg id="Text" xmlns="http://www.w3.org/2000/svg" viewBox="0 0 600 300"><defs><style>.cls-1{fill:#4d4d4d;}.cls-2{fill:#333;}.cls-3{fill:#f93;}</style></defs><rect class="cls-1" x="0.5" y="0.5" width="599" height="299"/><path d="M599,1V299H1V1H599m1-1H0V300H600V0Z"/><g id="Shadow"><path class="cls-2" d="M205,14.19H209c4.93,0,7.6,2.93,7.6,8.12s-2.67,8.28-7.5,8.28H205Zm3.9,14.67c3.73,0,5.57-2.4,5.57-6.55s-1.84-6.39-5.57-6.39h-1.8V28.86Z"/><path class="cls-2" d="M219.48,24.49a6.11,6.11,0,0,1,6.2-6.35c3.49,0,5.54,2.27,5.54,5.7a8.55,8.55,0,0,1-.1,1.25H220.85v-1.6h9.05l-.52.57c0-2.87-1.43-4.3-3.65-4.3s-4.2,1.7-4.2,4.73a4.41,4.41,0,0,0,4.75,4.75A6.56,6.56,0,0,0,230,28.09l.75,1.35A8.29,8.29,0,0,1,226,30.89C222.38,30.89,219.48,28.54,219.48,24.49Z"/><path class="cls-2" d="M234.48,24.49a6.11,6.11,0,0,1,6.2-6.35c3.49,0,5.54,2.27,5.54,5.7a10.42,10.42,0,0,1-.09,1.25H235.85v-1.6h9.05l-.52.57c0-2.87-1.43-4.3-3.65-4.3s-4.2,1.7-4.2,4.73a4.41,4.41,0,0,0,4.75,4.75A6.56,6.56,0,0,0,245,28.09l.75,1.35A8.27,8.27,0,0,1,241,30.89C237.38,30.89,234.48,28.54,234.48,24.49Z"/><path class="cls-2" d="M252.93,25.86V20.11h-3.45V18.56l3.52-.12.28-3.9H255v3.9H261v1.67H255v5.78c0,2.17.73,3.3,3.08,3.3a8,8,0,0,0,2.89-.55l.45,1.52a10.56,10.56,0,0,1-3.79.73C254.08,30.89,252.93,28.86,252.93,25.86Z"/><path class="cls-2" d="M264.55,29.49l8.3-9.38h-7.37V18.44h10.34v1.1l-8.29,9.35h8.52v1.7h-11.5Z"/><path class="cls-2" d="M279.45,28.46,280.7,27a6.88,6.88,0,0,0,4.8,2c2.25,0,3.55-1.08,3.55-2.58,0-1.75-1.27-2.25-2.92-2.95l-2.38-1.05c-1.62-.65-3.52-1.8-3.52-4.22s2.25-4.35,5.37-4.35a7.16,7.16,0,0,1,5,2l-1.1,1.35a5.78,5.78,0,0,0-4-1.53c-1.9,0-3.18.9-3.18,2.37s1.53,2.15,2.93,2.7l2.3,1c2,.8,3.62,1.95,3.62,4.37,0,2.6-2.2,4.68-5.8,4.68A8.33,8.33,0,0,1,279.45,28.46Z"/><path class="cls-2" d="M297.93,25.86V20.11h-3.45V18.56l3.52-.12.28-3.9H300v3.9H306v1.67H300v5.78c0,2.17.73,3.3,3.08,3.3a8,8,0,0,0,2.89-.55l.45,1.52a10.56,10.56,0,0,1-3.79.73C299.08,30.89,297.93,28.86,297.93,25.86Z"/><path class="cls-2" d="M309.28,24.54c0-4.08,2.8-6.4,6-6.4s6,2.32,6,6.4-2.8,6.35-6,6.35S309.28,28.56,309.28,24.54Zm9.87,0c0-2.8-1.55-4.68-3.87-4.68s-3.88,1.88-3.88,4.68,1.55,4.62,3.88,4.62S319.15,27.31,319.15,24.54Z"/><path class="cls-2" d="M326.4,18.44h1.73l.2,2.87h.05a6.4,6.4,0,0,1,5.42-3.17,5.17,5.17,0,0,1,2.4.5l-.48,1.77a6.2,6.2,0,0,0-2.25-.4c-1.82,0-3.54.93-5,3.48v7.1H326.4Z"/><path class="cls-2" d="M342.93,25.86V20.11h-3.45V18.56l3.52-.12.28-3.9H345v3.9H351v1.67H345v5.78c0,2.17.73,3.3,3.08,3.3a8,8,0,0,0,2.89-.55l.45,1.52a10.56,10.56,0,0,1-3.79.73C344.08,30.89,342.93,28.86,342.93,25.86Z"/><path class="cls-2" d="M360.65,20.11H355V18.44h7.69V30.59h-2.07Zm-.82-5.82a1.65,1.65,0,1,1,1.65,1.6A1.55,1.55,0,0,1,359.83,14.29Z"/><path class="cls-2" d="M369.28,24.54c0-4.08,2.8-6.4,6-6.4s6,2.32,6,6.4-2.8,6.35-6,6.35S369.28,28.56,369.28,24.54Zm9.87,0c0-2.8-1.55-4.68-3.87-4.68s-3.88,1.88-3.88,4.68,1.55,4.62,3.88,4.62S379.15,27.31,379.15,24.54Z"/><path class="cls-2" d="M385.1,18.44h1.7l.18,2h.1a6.26,6.26,0,0,1,4.57-2.35c2.87,0,4.2,1.7,4.2,4.9v7.55h-2.08V23.31c0-2.3-.8-3.37-2.77-3.37-1.45,0-2.42.72-3.82,2.17v8.48H385.1Z"/></g><path class="cls-3" d="M207,17.19H211c4.93,0,7.6,2.93,7.6,8.12s-2.67,8.28-7.5,8.28H207Zm3.9,14.67c3.73,0,5.57-2.4,5.57-6.55s-1.84-6.39-5.57-6.39h-1.8V31.86Z"/><path class="cls-3" d="M221.48,27.49a6.11,6.11,0,0,1,6.2-6.35c3.49,0,5.54,2.27,5.54,5.7a8.55,8.55,0,0,1-.1,1.25H222.85v-1.6h9.05l-.52.57c0-2.87-1.43-4.3-3.65-4.3s-4.2,1.7-4.2,4.73a4.41,4.41,0,0,0,4.75,4.75A6.56,6.56,0,0,0,232,31.09l.75,1.35A8.29,8.29,0,0,1,228,33.89C224.38,33.89,221.48,31.54,221.48,27.49Z"/><path class="cls-3" d="M236.48,27.49a6.11,6.11,0,0,1,6.2-6.35c3.49,0,5.54,2.27,5.54,5.7a10.42,10.42,0,0,1-.09,1.25H237.85v-1.6h9.05l-.52.57c0-2.87-1.43-4.3-3.65-4.3s-4.2,1.7-4.2,4.73a4.41,4.41,0,0,0,4.75,4.75A6.56,6.56,0,0,0,247,31.09l.75,1.35A8.27,8.27,0,0,1,243,33.89C239.38,33.89,236.48,31.54,236.48,27.49Z"/><path class="cls-3" d="M254.93,28.86V23.11h-3.45V21.56l3.52-.12.28-3.9H257v3.9H263v1.67H257v5.78c0,2.17.73,3.3,3.08,3.3a8,8,0,0,0,2.89-.55l.45,1.52a10.56,10.56,0,0,1-3.79.73C256.08,33.89,254.93,31.86,254.93,28.86Z"/><path class="cls-3" d="M266.55,32.49l8.3-9.38h-7.37V21.44h10.34v1.1l-8.29,9.35h8.52v1.7h-11.5Z"/><path class="cls-3" d="M281.45,31.46,282.7,30a6.88,6.88,0,0,0,4.8,2c2.25,0,3.55-1.08,3.55-2.58,0-1.75-1.27-2.25-2.92-2.95l-2.38-1.05c-1.62-.65-3.52-1.8-3.52-4.22s2.25-4.35,5.37-4.35a7.16,7.16,0,0,1,5,2l-1.1,1.35a5.78,5.78,0,0,0-4-1.53c-1.9,0-3.18.9-3.18,2.37s1.53,2.15,2.93,2.7l2.3,1c2,.8,3.62,1.95,3.62,4.37,0,2.6-2.2,4.68-5.8,4.68A8.33,8.33,0,0,1,281.45,31.46Z"/><path class="cls-3" d="M299.93,28.86V23.11h-3.45V21.56l3.52-.12.28-3.9H302v3.9H308v1.67H302v5.78c0,2.17.73,3.3,3.08,3.3a8,8,0,0,0,2.89-.55l.45,1.52a10.56,10.56,0,0,1-3.79.73C301.08,33.89,299.93,31.86,299.93,28.86Z"/><path class="cls-3" d="M311.28,27.54c0-4.08,2.8-6.4,6-6.4s6,2.32,6,6.4-2.8,6.35-6,6.35S311.28,31.56,311.28,27.54Zm9.87,0c0-2.8-1.55-4.68-3.87-4.68s-3.88,1.88-3.88,4.68,1.55,4.62,3.88,4.62S321.15,30.31,321.15,27.54Z"/><path class="cls-3" d="M328.4,21.44h1.73l.2,2.87h.05a6.4,6.4,0,0,1,5.42-3.17,5.17,5.17,0,0,1,2.4.5l-.48,1.77a6.2,6.2,0,0,0-2.25-.4c-1.82,0-3.54.93-5,3.48v7.1H328.4Z"/><path class="cls-3" d="M344.93,28.86V23.11h-3.45V21.56l3.52-.12.28-3.9H347v3.9H353v1.67H347v5.78c0,2.17.73,3.3,3.08,3.3a8,8,0,0,0,2.89-.55l.45,1.52a10.56,10.56,0,0,1-3.79.73C346.08,33.89,344.93,31.86,344.93,28.86Z"/><path class="cls-3" d="M362.65,23.11H357V21.44h7.69V33.59h-2.07Zm-.82-5.82a1.65,1.65,0,1,1,1.65,1.6A1.55,1.55,0,0,1,361.83,17.29Z"/><path class="cls-3" d="M371.28,27.54c0-4.08,2.8-6.4,6-6.4s6,2.32,6,6.4-2.8,6.35-6,6.35S371.28,31.56,371.28,27.54Zm9.87,0c0-2.8-1.55-4.68-3.87-4.68s-3.88,1.88-3.88,4.68,1.55,4.62,3.88,4.62S381.15,30.31,381.15,27.54Z"/><path class="cls-3" d="M387.1,21.44h1.7l.18,2h.1a6.26,6.26,0,0,1,4.57-2.35c2.87,0,4.2,1.7,4.2,4.9v7.55h-2.08V26.31c0-2.3-.8-3.37-2.77-3.37-1.45,0-2.42.72-3.82,2.17v8.48H387.1Z"/><g id="Input"><g id="Shadow-2" data-name="Shadow"><path class="cls-2" d="M77.88,76.65h2.61V68.42H77.88V67.29h6.56v1.13H81.83v8.23h2.61v1.14H77.88Z"/><path class="cls-2" d="M87.44,70h1.09l.11,1.31h.07a4,4,0,0,1,2.93-1.51c1.84,0,2.69,1.09,2.69,3.14v4.84H93V73.13c0-1.48-.51-2.16-1.78-2.16-.93,0-1.55.46-2.45,1.39v5.43H87.44Z"/><path class="cls-2" d="M97,70h1.09l.11,1h.05A4.14,4.14,0,0,1,101,69.81c2.1,0,3.22,1.56,3.22,4,0,2.64-1.67,4.2-3.54,4.2a3.68,3.68,0,0,1-2.32-1h0l.06,1.47v2.63H97Zm5.8,3.77c0-1.71-.64-2.85-2.2-2.85a3.34,3.34,0,0,0-2.27,1.16V76a3.24,3.24,0,0,0,2.07.9C101.81,76.86,102.84,75.7,102.84,73.78Z"/><path class="cls-2" d="M106.39,74.84V70h1.33v4.65c0,1.46.51,2.16,1.79,2.16a3.07,3.07,0,0,0,2.41-1.42V70h1.33v7.78h-1.1L112,76.42H112A3.75,3.75,0,0,1,109.08,78C107.24,78,106.39,76.89,106.39,74.84Z"/><path class="cls-2" d="M118.05,74.76V71.08h-2.21v-1L118.1,70l.18-2.5h1.1V70h3.81v1.07h-3.81v3.7c0,1.39.46,2.11,2,2.11a5.31,5.31,0,0,0,1.86-.35l.28,1a6.65,6.65,0,0,1-2.43.47C118.79,78,118.05,76.68,118.05,74.76Z"/><path class="cls-2" d="M134.8,72.54c0-3.4,1.94-5.45,4.66-5.45a3.9,3.9,0,0,1,2.9,1.28l-.77.85a2.73,2.73,0,0,0-2.13-.94c-2,0-3.25,1.61-3.25,4.22s1.17,4.29,3.22,4.29a2.62,2.62,0,0,0,1.81-.61V73.45h-2.08V72.34h3.32v4.42A4.4,4.4,0,0,1,139.35,78C136.71,78,134.8,76,134.8,72.54Z"/><path class="cls-2" d="M144.83,75.77c0-1.75,1.64-2.59,5.65-2.92a1.84,1.84,0,0,0-2.06-1.95,5.39,5.39,0,0,0-2.72.93l-.53-.9a6.83,6.83,0,0,1,3.47-1.12A2.9,2.9,0,0,1,151.81,73v4.77h-1.1l-.11-1.06h0A5.26,5.26,0,0,1,147.49,78C146,78,144.83,77.16,144.83,75.77Zm5.65,0v-2c-3.33.25-4.33.91-4.33,1.93s.8,1.23,1.69,1.23A4.2,4.2,0,0,0,150.48,75.75Z"/><path class="cls-2" d="M158.19,71.08h-3.6V70h4.93v7.78h-1.33Zm-.52-3.73a1.06,1.06,0,1,1,1.05,1A1,1,0,0,1,157.67,67.35Z"/><path class="cls-2" d="M164.24,70h1.09l.11,1.31h.06a4.05,4.05,0,0,1,2.93-1.51c1.85,0,2.69,1.09,2.69,3.14v4.84h-1.33V73.13c0-1.48-.51-2.16-1.77-2.16-.93,0-1.55.46-2.45,1.39v5.43h-1.33Z"/></g><path class="cls-3" d="M79.17,79.65h2.61V71.42H79.17V70.29h6.56v1.13H83.12v8.23h2.61v1.14H79.17Z"/><path class="cls-3" d="M88.73,73h1.09l.12,1.31H90a4,4,0,0,1,2.93-1.51c1.84,0,2.69,1.09,2.69,3.14v4.84H94.29V76.13c0-1.48-.51-2.16-1.78-2.16-.93,0-1.55.46-2.45,1.39v5.43H88.73Z"/><path class="cls-3" d="M98.33,73h1.09l.12,1h0a4.14,4.14,0,0,1,2.69-1.19c2.1,0,3.22,1.56,3.22,4,0,2.64-1.67,4.2-3.54,4.2a3.68,3.68,0,0,1-2.32-1h0l.06,1.47v2.63H98.33Zm5.8,3.77c0-1.71-.64-2.85-2.19-2.85a3.34,3.34,0,0,0-2.28,1.16V79a3.24,3.24,0,0,0,2.07.9C103.1,79.86,104.13,78.7,104.13,76.78Z"/><path class="cls-3" d="M107.68,77.84V73H109v4.65c0,1.46.51,2.16,1.79,2.16a3.08,3.08,0,0,0,2.42-1.42V73h1.32v7.78h-1.1l-.11-1.37h-.07A3.75,3.75,0,0,1,110.37,81C108.53,81,107.68,79.89,107.68,77.84Z"/><path class="cls-3" d="M119.34,77.76V74.08h-2.21v-1l2.26-.08.18-2.5h1.1V73h3.81v1.07h-3.81v3.7c0,1.39.46,2.11,2,2.11a5.31,5.31,0,0,0,1.86-.35l.28,1a6.65,6.65,0,0,1-2.43.47C120.08,81,119.34,79.68,119.34,77.76Z"/><path class="cls-3" d="M136.09,75.54c0-3.4,1.94-5.45,4.66-5.45a3.88,3.88,0,0,1,2.9,1.28l-.77.85a2.73,2.73,0,0,0-2.13-.94c-2,0-3.25,1.61-3.25,4.22s1.17,4.29,3.22,4.29a2.6,2.6,0,0,0,1.81-.61V76.45h-2.08V75.34h3.33v4.42A4.44,4.44,0,0,1,140.64,81C138,81,136.09,79,136.09,75.54Z"/><path class="cls-3" d="M146.12,78.77c0-1.75,1.64-2.59,5.65-2.92a1.84,1.84,0,0,0-2.06-1.95,5.39,5.39,0,0,0-2.72.93l-.53-.9a6.83,6.83,0,0,1,3.47-1.12A2.9,2.9,0,0,1,153.1,76v4.77H152l-.11-1.06h0A5.26,5.26,0,0,1,148.78,81C147.33,81,146.12,80.16,146.12,78.77Zm5.65,0v-2c-3.32.25-4.33.91-4.33,1.93s.8,1.23,1.69,1.23A4.2,4.2,0,0,0,151.77,78.75Z"/><path class="cls-3" d="M159.49,74.08h-3.61V73h4.93v7.78h-1.32ZM159,70.35a1.06,1.06,0,0,1,2.11,0,1.06,1.06,0,0,1-2.11,0Z"/><path class="cls-3" d="M165.53,73h1.09l.11,1.31h.07a4,4,0,0,1,2.93-1.51c1.84,0,2.68,1.09,2.68,3.14v4.84h-1.32V76.13c0-1.48-.52-2.16-1.78-2.16-.93,0-1.55.46-2.45,1.39v5.43h-1.33Z"/></g><g id="Dry_Wet" data-name="Dry Wet"><g id="Shadow-3" data-name="Shadow"><path class="cls-2" d="M267.15,67.29h2.59c3.15,0,4.87,1.87,4.87,5.2s-1.72,5.3-4.81,5.3h-2.65Zm2.49,9.39c2.39,0,3.57-1.54,3.57-4.19s-1.18-4.1-3.57-4.1h-1.15v8.29Z"/><path class="cls-2" d="M277.68,70h1.1l.13,1.84h0a4.1,4.1,0,0,1,3.47-2,3.28,3.28,0,0,1,1.54.32l-.3,1.14a3.87,3.87,0,0,0-1.44-.26c-1.17,0-2.28.6-3.21,2.23v4.55h-1.32Z"/><path class="cls-2" d="M286,81l.27-1.06a2.28,2.28,0,0,0,.7.12,2.25,2.25,0,0,0,2.13-1.65l.23-.58L285.74,70h1.34L289,74.3c.31.68.64,1.5,1,2.25H290l.83-2.25L292.51,70h1.28l-3.44,8.42c-.58,1.53-1.52,2.7-3.3,2.7A3.12,3.12,0,0,1,286,81Z"/><path class="cls-2" d="M301.39,66.42h1.18l-5.25,13.93h-1.18Z"/><path class="cls-2" d="M304.31,67.27h1.51l.77,6.59c.09.88.16,1.4.2,2.44h0c.19-1,.31-1.56.51-2.42l1-3.91h1.28l1,3.91c.23.86.32,1.38.51,2.42h.07c.06-1,.09-1.56.19-2.42l.74-6.61h1.44l-1.54,10.52H310.4l-1-4.23a18.06,18.06,0,0,1-.38-1.89h-.05c-.11.64-.21,1.25-.37,1.89l-1,4.23h-1.64Z"/><path class="cls-2" d="M314.84,73.88a3.92,3.92,0,0,1,4-4.07,3.35,3.35,0,0,1,3.55,3.65,5.58,5.58,0,0,1-.06.8h-6.58v-1h5.8l-.34.37c0-1.84-.91-2.76-2.34-2.76a2.74,2.74,0,0,0-2.69,3,2.83,2.83,0,0,0,3.05,3,4.21,4.21,0,0,0,2.36-.74l.48.87a5.32,5.32,0,0,1-3,.93A4,4,0,0,1,314.84,73.88Z"/><path class="cls-2" d="M326.65,74.76V71.08h-2.21v-1L326.7,70l.17-2.5H328V70h3.81v1.07H328v3.7c0,1.39.46,2.11,2,2.11a5.25,5.25,0,0,0,1.85-.35l.29,1a6.65,6.65,0,0,1-2.43.47C327.39,78,326.65,76.68,326.65,74.76Z"/></g><path class="cls-3" d="M268.44,70.29H271c3.15,0,4.87,1.87,4.87,5.2s-1.72,5.3-4.8,5.3h-2.66Zm2.5,9.39c2.38,0,3.56-1.54,3.56-4.19s-1.18-4.1-3.56-4.1h-1.16v8.29Z"/><path class="cls-3" d="M279,73h1.1l.13,1.84h0a4.1,4.1,0,0,1,3.47-2,3.28,3.28,0,0,1,1.54.32l-.3,1.14A3.87,3.87,0,0,0,283.5,74c-1.17,0-2.28.6-3.21,2.23v4.55H279Z"/><path class="cls-3" d="M287.32,84l.27-1.06a2.28,2.28,0,0,0,.7.12,2.25,2.25,0,0,0,2.13-1.65l.23-.58L287,73h1.34l1.89,4.29c.31.68.64,1.5,1,2.25h.07l.83-2.25L293.8,73h1.28l-3.44,8.42c-.58,1.53-1.52,2.7-3.3,2.7A3.12,3.12,0,0,1,287.32,84Z"/><path class="cls-3" d="M302.68,69.42h1.18l-5.25,13.93h-1.18Z"/><path class="cls-3" d="M305.6,70.27h1.51l.77,6.59c.09.88.16,1.4.2,2.44h.05c.2-1,.31-1.56.52-2.42l1-3.91H311l1,3.91c.23.86.32,1.38.52,2.42h.06c.06-1,.1-1.56.19-2.42l.74-6.61h1.44l-1.54,10.52h-1.66l-1-4.23a18.06,18.06,0,0,1-.38-1.89h0c-.11.64-.21,1.25-.37,1.89l-1,4.23h-1.63Z"/><path class="cls-3" d="M316.13,76.88a3.92,3.92,0,0,1,4-4.07,3.35,3.35,0,0,1,3.56,3.65,5.4,5.4,0,0,1-.07.8H317v-1h5.8l-.34.37c0-1.84-.91-2.76-2.34-2.76a2.74,2.74,0,0,0-2.68,3,2.82,2.82,0,0,0,3,3,4.27,4.27,0,0,0,2.37-.74l.47.87a5.32,5.32,0,0,1-3,.93A4,4,0,0,1,316.13,76.88Z"/><path class="cls-3" d="M327.94,77.76V74.08h-2.21v-1L328,73l.18-2.5h1.1V73h3.81v1.07h-3.81v3.7c0,1.39.46,2.11,2,2.11a5.21,5.21,0,0,0,1.85-.35l.29,1A6.65,6.65,0,0,1,331,81C328.68,81,327.94,79.68,327.94,77.76Z"/></g><g id="Input-2" data-name="Input"><g id="Shadow-4" data-name="Shadow"><path class="cls-2" d="M422.32,72.49c0-3.4,1.67-5.4,4-5.4s4,2,4,5.4-1.66,5.49-4,5.49S422.32,75.93,422.32,72.49Zm6.68,0c0-2.64-1.06-4.21-2.64-4.21s-2.64,1.57-2.64,4.21,1,4.3,2.64,4.3S429,75.18,429,72.49Z"/><path class="cls-2" d="M432.39,74.84V70h1.33v4.65c0,1.46.51,2.16,1.79,2.16a3.08,3.08,0,0,0,2.42-1.42V70h1.32v7.78h-1.1L438,76.42H438A3.75,3.75,0,0,1,435.08,78C433.24,78,432.39,76.89,432.39,74.84Z"/><path class="cls-2" d="M444.05,74.76V71.08h-2.21v-1L444.1,70l.18-2.5h1.1V70h3.81v1.07h-3.81v3.7c0,1.39.46,2.11,2,2.11a5.31,5.31,0,0,0,1.86-.35l.28,1a6.65,6.65,0,0,1-2.43.47C444.79,78,444.05,76.68,444.05,74.76Z"/><path class="cls-2" d="M451.84,70h1.09l.11,1h0a4.14,4.14,0,0,1,2.69-1.19c2.1,0,3.22,1.56,3.22,4,0,2.64-1.67,4.2-3.54,4.2a3.68,3.68,0,0,1-2.32-1h0l.06,1.47v2.63h-1.33Zm5.8,3.77c0-1.71-.64-2.85-2.2-2.85a3.34,3.34,0,0,0-2.27,1.16V76a3.24,3.24,0,0,0,2.07.9C456.61,76.86,457.64,75.7,457.64,73.78Z"/><path class="cls-2" d="M461.19,74.84V70h1.32v4.65c0,1.46.52,2.16,1.8,2.16a3.07,3.07,0,0,0,2.41-1.42V70h1.33v7.78H467l-.11-1.37h-.07A3.75,3.75,0,0,1,463.88,78C462,78,461.19,76.89,461.19,74.84Z"/><path class="cls-2" d="M472.85,74.76V71.08h-2.21v-1L472.9,70l.18-2.5h1.1V70H478v1.07h-3.81v3.7c0,1.39.46,2.11,2,2.11a5.21,5.21,0,0,0,1.85-.35l.29,1a6.65,6.65,0,0,1-2.43.47C473.59,78,472.85,76.68,472.85,74.76Z"/><path class="cls-2" d="M489.6,72.54c0-3.4,1.94-5.45,4.66-5.45a3.9,3.9,0,0,1,2.9,1.28l-.77.85a2.73,2.73,0,0,0-2.13-.94c-2,0-3.25,1.61-3.25,4.22s1.17,4.29,3.22,4.29a2.62,2.62,0,0,0,1.81-.61V73.45H494V72.34h3.32v4.42A4.4,4.4,0,0,1,494.15,78C491.51,78,489.6,76,489.6,72.54Z"/><path class="cls-2" d="M499.63,75.77c0-1.75,1.64-2.59,5.65-2.92a1.84,1.84,0,0,0-2.06-1.95,5.39,5.39,0,0,0-2.72.93l-.53-.9a6.83,6.83,0,0,1,3.47-1.12A2.9,2.9,0,0,1,506.61,73v4.77h-1.1l-.11-1.06h0A5.26,5.26,0,0,1,502.29,78C500.83,78,499.63,77.16,499.63,75.77Zm5.65,0v-2C502,74,501,74.65,501,75.67s.8,1.23,1.69,1.23A4.2,4.2,0,0,0,505.28,75.75Z"/><path class="cls-2" d="M513,71.08h-3.6V70h4.93v7.78H513Zm-.52-3.73a1.06,1.06,0,1,1,1,1A1,1,0,0,1,512.47,67.35Z"/><path class="cls-2" d="M519,70h1.09l.11,1.31h.06a4.05,4.05,0,0,1,2.93-1.51c1.85,0,2.69,1.09,2.69,3.14v4.84h-1.33V73.13c0-1.48-.51-2.16-1.77-2.16-.93,0-1.55.46-2.45,1.39v5.43H519Z"/></g><path class="cls-3" d="M423.62,75.49c0-3.4,1.66-5.4,4-5.4s4,2,4,5.4S430,81,427.65,81,423.62,78.93,423.62,75.49Zm6.67,0c0-2.64-1.06-4.21-2.64-4.21S425,72.85,425,75.49s1.05,4.3,2.64,4.3S430.29,78.18,430.29,75.49Z"/><path class="cls-3" d="M433.68,77.84V73H435v4.65c0,1.46.51,2.16,1.79,2.16a3.08,3.08,0,0,0,2.42-1.42V73h1.33v7.78h-1.11l-.11-1.37h-.07A3.75,3.75,0,0,1,436.37,81C434.53,81,433.68,79.89,433.68,77.84Z"/><path class="cls-3" d="M445.34,77.76V74.08h-2.21v-1l2.26-.08.18-2.5h1.1V73h3.81v1.07h-3.81v3.7c0,1.39.47,2.11,2,2.11a5.31,5.31,0,0,0,1.86-.35l.29,1a6.75,6.75,0,0,1-2.44.47C446.08,81,445.34,79.68,445.34,77.76Z"/><path class="cls-3" d="M453.13,73h1.09l.11,1h.05a4.14,4.14,0,0,1,2.69-1.19c2.1,0,3.22,1.56,3.22,4,0,2.64-1.67,4.2-3.54,4.2a3.68,3.68,0,0,1-2.32-1h0l.06,1.47v2.63h-1.33Zm5.8,3.77c0-1.71-.64-2.85-2.19-2.85a3.34,3.34,0,0,0-2.28,1.16V79a3.24,3.24,0,0,0,2.07.9C457.9,79.86,458.93,78.7,458.93,76.78Z"/><path class="cls-3" d="M462.48,77.84V73h1.33v4.65c0,1.46.51,2.16,1.79,2.16A3.08,3.08,0,0,0,468,78.4V73h1.32v7.78h-1.1l-.11-1.37h-.07A3.75,3.75,0,0,1,465.17,81C463.33,81,462.48,79.89,462.48,77.84Z"/><path class="cls-3" d="M474.14,77.76V74.08h-2.21v-1l2.26-.08.18-2.5h1.1V73h3.81v1.07h-3.81v3.7c0,1.39.46,2.11,2,2.11a5.31,5.31,0,0,0,1.86-.35l.28,1a6.65,6.65,0,0,1-2.43.47C474.88,81,474.14,79.68,474.14,77.76Z"/><path class="cls-3" d="M490.89,75.54c0-3.4,1.94-5.45,4.66-5.45a3.88,3.88,0,0,1,2.9,1.28l-.77.85a2.73,2.73,0,0,0-2.13-.94c-2,0-3.25,1.61-3.25,4.22s1.17,4.29,3.22,4.29a2.62,2.62,0,0,0,1.81-.61V76.45h-2.08V75.34h3.33v4.42A4.44,4.44,0,0,1,495.44,81C492.8,81,490.89,79,490.89,75.54Z"/><path class="cls-3" d="M500.92,78.77c0-1.75,1.64-2.59,5.65-2.92a1.84,1.84,0,0,0-2.06-1.95,5.39,5.39,0,0,0-2.72.93l-.53-.9a6.83,6.83,0,0,1,3.47-1.12A2.9,2.9,0,0,1,507.9,76v4.77h-1.1l-.11-1.06h-.05A5.26,5.26,0,0,1,503.58,81C502.13,81,500.92,80.16,500.92,78.77Zm5.65,0v-2c-3.32.25-4.33.91-4.33,1.93s.8,1.23,1.69,1.23A4.2,4.2,0,0,0,506.57,78.75Z"/><path class="cls-3" d="M514.29,74.08h-3.61V73h4.93v7.78h-1.32Zm-.53-3.73a1.06,1.06,0,0,1,2.11,0,1.06,1.06,0,0,1-2.11,0Z"/><path class="cls-3" d="M520.33,73h1.09l.11,1.31h.07a4,4,0,0,1,2.93-1.51c1.84,0,2.68,1.09,2.68,3.14v4.84h-1.32V76.13c0-1.48-.52-2.16-1.78-2.16-.93,0-1.55.46-2.45,1.39v5.43h-1.33Z"/></g></svg>